<mxfile host="65bd71144e">
    <diagram id="Uxja2Rl7QqcOp60bIBS7" name="Page-1">
        <mxGraphModel dx="1362" dy="795" grid="1" gridSize="10" guides="1" tooltips="1" connect="1" arrows="1" fold="1" page="1" pageScale="1" pageWidth="827" pageHeight="1169" math="0" shadow="0">
            <root>
                <mxCell id="0"/>
                <mxCell id="1" parent="0"/>
                <mxCell id="3" value="LOGIN" style="text;html=1;align=center;verticalAlign=middle;resizable=0;points=[];autosize=1;strokeColor=none;fillColor=none;" vertex="1" parent="1">
                    <mxGeometry x="80" y="414" width="60" height="30" as="geometry"/>
                </mxCell>
                <mxCell id="6" value="TIPOS DE GANADOS" style="whiteSpace=wrap;html=1;rounded=1;arcSize=50;align=center;verticalAlign=middle;strokeWidth=1;autosize=1;spacing=4;treeFolding=1;treeMoving=1;newEdgeStyle={&quot;edgeStyle&quot;:&quot;entityRelationEdgeStyle&quot;,&quot;startArrow&quot;:&quot;none&quot;,&quot;endArrow&quot;:&quot;none&quot;,&quot;segment&quot;:10,&quot;curved&quot;:1,&quot;sourcePerimeterSpacing&quot;:0,&quot;targetPerimeterSpacing&quot;:0};" vertex="1" parent="1">
                    <mxGeometry x="230" y="430" width="160" height="30" as="geometry"/>
                </mxCell>
                <mxCell id="7" value="" style="edgeStyle=entityRelationEdgeStyle;startArrow=none;endArrow=diamondThin;segment=10;curved=1;sourcePerimeterSpacing=0;targetPerimeterSpacing=0;exitX=1;exitY=0.75;exitDx=0;exitDy=0;endFill=1;" edge="1" target="6" parent="1" source="12">
                    <mxGeometry relative="1" as="geometry">
                        <mxPoint x="326" y="428" as="sourcePoint"/>
                    </mxGeometry>
                </mxCell>
                <mxCell id="8" value="CREAR REGISTRO DE GANADO" style="whiteSpace=wrap;html=1;rounded=1;arcSize=50;align=center;verticalAlign=middle;strokeWidth=1;autosize=1;spacing=4;treeFolding=1;treeMoving=1;newEdgeStyle={&quot;edgeStyle&quot;:&quot;entityRelationEdgeStyle&quot;,&quot;startArrow&quot;:&quot;none&quot;,&quot;endArrow&quot;:&quot;none&quot;,&quot;segment&quot;:10,&quot;curved&quot;:1,&quot;sourcePerimeterSpacing&quot;:0,&quot;targetPerimeterSpacing&quot;:0};" vertex="1" parent="1">
                    <mxGeometry x="500" y="150" width="260" height="30" as="geometry"/>
                </mxCell>
                <mxCell id="9" value="ACTUALIZAR REGISTRO DE GANADO" style="whiteSpace=wrap;html=1;rounded=1;arcSize=50;align=center;verticalAlign=middle;strokeWidth=1;autosize=1;spacing=4;treeFolding=1;treeMoving=1;newEdgeStyle={&quot;edgeStyle&quot;:&quot;entityRelationEdgeStyle&quot;,&quot;startArrow&quot;:&quot;none&quot;,&quot;endArrow&quot;:&quot;none&quot;,&quot;segment&quot;:10,&quot;curved&quot;:1,&quot;sourcePerimeterSpacing&quot;:0,&quot;targetPerimeterSpacing&quot;:0};" vertex="1" parent="1">
                    <mxGeometry x="490" y="255" width="260" height="30" as="geometry"/>
                </mxCell>
                <mxCell id="10" value="ELIMINAR REGISTRO DE GANADO" style="whiteSpace=wrap;html=1;rounded=1;arcSize=50;align=center;verticalAlign=middle;strokeWidth=1;autosize=1;spacing=4;treeFolding=1;treeMoving=1;newEdgeStyle={&quot;edgeStyle&quot;:&quot;entityRelationEdgeStyle&quot;,&quot;startArrow&quot;:&quot;none&quot;,&quot;endArrow&quot;:&quot;none&quot;,&quot;segment&quot;:10,&quot;curved&quot;:1,&quot;sourcePerimeterSpacing&quot;:0,&quot;targetPerimeterSpacing&quot;:0};" vertex="1" parent="1">
                    <mxGeometry x="500" y="370" width="260" height="30" as="geometry"/>
                </mxCell>
                <mxCell id="12" value="" style="shape=actor;whiteSpace=wrap;html=1;" vertex="1" parent="1">
                    <mxGeometry x="90" y="449" width="40" height="60" as="geometry"/>
                </mxCell>
                <mxCell id="13" value="" style="shape=actor;whiteSpace=wrap;html=1;" vertex="1" parent="1">
                    <mxGeometry x="85" y="220" width="40" height="60" as="geometry"/>
                </mxCell>
                <mxCell id="14" value="" style="shape=cross;whiteSpace=wrap;html=1;" vertex="1" parent="1">
                    <mxGeometry x="135" y="240" width="40" height="40" as="geometry"/>
                </mxCell>
                <mxCell id="15" value="CREAR CUENTA" style="text;html=1;align=center;verticalAlign=middle;resizable=0;points=[];autosize=1;strokeColor=none;fillColor=none;" vertex="1" parent="1">
                    <mxGeometry x="45" y="180" width="120" height="30" as="geometry"/>
                </mxCell>
                <mxCell id="16" value="" style="edgeStyle=entityRelationEdgeStyle;startArrow=none;endArrow=diamondThin;segment=10;curved=1;sourcePerimeterSpacing=0;targetPerimeterSpacing=0;exitX=0.5;exitY=1;exitDx=0;exitDy=0;entryX=0.533;entryY=-0.05;entryDx=0;entryDy=0;entryPerimeter=0;endFill=1;" edge="1" parent="1" source="13" target="3">
                    <mxGeometry relative="1" as="geometry">
                        <mxPoint x="150" y="355" as="sourcePoint"/>
                        <mxPoint x="450" y="340" as="targetPoint"/>
                    </mxGeometry>
                </mxCell>
                <mxCell id="17" value="" style="edgeStyle=entityRelationEdgeStyle;startArrow=none;endArrow=diamondThin;segment=10;curved=1;sourcePerimeterSpacing=0;targetPerimeterSpacing=0;exitX=1;exitY=0.5;exitDx=0;exitDy=0;endFill=1;entryX=0;entryY=0.5;entryDx=0;entryDy=0;" edge="1" parent="1" source="6" target="8">
                    <mxGeometry relative="1" as="geometry">
                        <mxPoint x="350" y="145" as="sourcePoint"/>
                        <mxPoint x="650" y="130" as="targetPoint"/>
                    </mxGeometry>
                </mxCell>
                <mxCell id="18" value="" style="edgeStyle=entityRelationEdgeStyle;startArrow=none;endArrow=diamondThin;segment=10;curved=1;sourcePerimeterSpacing=0;targetPerimeterSpacing=0;exitX=1;exitY=0.5;exitDx=0;exitDy=0;endFill=1;entryX=0;entryY=0.5;entryDx=0;entryDy=0;" edge="1" parent="1" source="6" target="9">
                    <mxGeometry relative="1" as="geometry">
                        <mxPoint x="420" y="285" as="sourcePoint"/>
                        <mxPoint x="510" y="235" as="targetPoint"/>
                    </mxGeometry>
                </mxCell>
                <mxCell id="19" value="" style="edgeStyle=entityRelationEdgeStyle;startArrow=none;endArrow=diamondThin;segment=10;curved=1;sourcePerimeterSpacing=0;targetPerimeterSpacing=0;exitX=1;exitY=0.5;exitDx=0;exitDy=0;endFill=1;entryX=0;entryY=0.25;entryDx=0;entryDy=0;" edge="1" parent="1" source="6" target="10">
                    <mxGeometry relative="1" as="geometry">
                        <mxPoint x="420" y="285" as="sourcePoint"/>
                        <mxPoint x="510" y="285" as="targetPoint"/>
                    </mxGeometry>
                </mxCell>
                <mxCell id="20" value="" style="shape=image;verticalLabelPosition=bottom;labelBackgroundColor=default;verticalAlign=top;aspect=fixed;imageAspect=0;image=data:image/svg+xml,PHN2ZyB4bWxucz0iaHR0cDovL3d3dy53My5vcmcvMjAwMC9zdmciIHByZXNlcnZlQXNwZWN0UmF0aW89InhNaWRZTWlkIG1lZXQiIHZpZXdCb3g9IjAuNDE0MDYyNSAwLjE3MDE5OTM0OTUyMjU5MDY0IDEyNzkuMzI5ODMzOTg0Mzc1IDEwMzkuODI5ODMzOTg0Mzc1IiBoZWlnaHQ9IjEwMzkuODI5ODMzOTg0Mzc1IiB3aWR0aD0iMTI3OS4zMjk4MzM5ODQzNzUiIHZlcnNpb249IjEuMCI+CjxnIHN0cm9rZT0ibm9uZSIgZmlsbD0iIzAwMDAwMCIgdHJhbnNmb3JtPSJ0cmFuc2xhdGUoMC4wMDAwMDAsMTA0MC4wMDAwMDApIHNjYWxlKDAuMTAwMDAwLC0wLjEwMDAwMCkiPgo8cGF0aCBkPSJNMTA0MjAgMTAzNzAgYy0xMjUgLTQxIC0xNzUgLTczIC0yNzYgLTE3NCAtMTQ1IC0xNDUgLTI4MSAtMzM5IC0zODcmIzEwOy01NTEgLTc3IC0xNTQgLTkwIC0yMDMgLTkwIC0zNDAgMSAtMjI1IDc3IC00MDYgMTgxIC00MzUgNTQgLTE1IDE4MiAtMTIgMjY5JiMxMDs2IDE2NCAzNCAyNzkgOTAgNDExIDIwMCA4MCA2NyAxMDcgNzcgMTE3IDQ1IDggLTI2IC02IC01NyAtNjAgLTEyOSAtODEgLTEwOCYjMTA7LTI3MyAtMjU3IC0zNjQgLTI4MiAtNTMgLTE1IC0yNDQgLTEyIC0zNDEgNSAtMTAxIDE4IC0yMTUgNzAgLTI1OCAxMTkgLTE2IDE5JiMxMDstMzggNTUgLTQ4IDgxIC0xNSA0MSAtMTYgNTYgLTYgMTEzIDYgMzcgOSA2OCA4IDcwIC03IDYgLTE2MiAtMTE3IC0yNTEgLTE5OSYjMTA7LTQ5IC00NSAtMjExIC0xOTcgLTM2MCAtMzM4IC0zNTcgLTMzOCAtMzk2IC0zNzUgLTQ5MCAtNDU3IC0zMTkgLTI4MSAtNjE0JiMxMDstNDkwIC04NTAgLTYwNCAtMTYxIC03OCAtMjA1IC05MSAtNTI1IC0xNTUgLTM0NiAtNjkgLTUxMCAtODEgLTEwNTAgLTcxIC02MjImIzEwOzEwIC0xMDE4IDQyIC0xMzQwIDEwNiAtODAgMTYgLTIzMCA0NiAtMzM1IDY1IC0yNDYgNDcgLTM2OSA3NCAtNTk1IDEzNSAtMjc2JiMxMDs3NCAtMzk2IDgzIC01ODAgNDUgLTE2MSAtMzQgLTI5NiAtOTUgLTY2MCAtMjk5IC0xMjQgLTcwIC0yNTAgLTEzNiAtMjc5IC0xNDcmIzEwOy0zMCAtMTEgLTc2IC0zNiAtMTAyIC01NSAtNTggLTQyIC0xMTkgLTY5IC0yOTAgLTEyOSAtMTQ5IC01MyAtMjI1IC04OCAtMzE0JiMxMDstMTQ4IC0xMjcgLTg2IC0yNDMgLTIyMCAtMjcxIC0zMTUgLTE5IC02MSAtMzIgLTM2NCAtNDQgLTk5MiAtMTMgLTYzNyAtMjcmIzEwOy04MjAgLTg1IC0xMTA1IC0zMiAtMTU0IC03MCAtMjcwIC0xNTIgLTQ1OCAtMTEwIC0yNTUgLTExOSAtMjcxIC0zNTEgLTU4MCYjMTA7LTIyNiAtMzAyIC0yNTggLTM2OCAtMjkzIC02MDUgLTM0IC0yMzUgLTU5IC0zMjAgLTE0NCAtNDg0IC00MSAtODEgLTkwIC0xODImIzEwOy0xMDkgLTIyNSAtMTggLTQzIC01MSAtMTEzIC03MSAtMTU2IC0zNSAtNzEgLTM3IC03OSAtMjIgLTk0IDI0IC0yNCA5MiAtMTgmIzEwOzE5MyAxOCAxNjMgNTcgMjI2IDk4IDI1NiAxNjYgMTYgMzYgMjEgODEgMjggMjUyIDExIDI2MCAyNiAzNTAgMTAwIDYyOSAxMTAmIzEwOzQwNiAxMjAgNDI0IDMxMCA1MzMgMjQ1IDE0MCAzODAgNDAxIDQ3NCA5MjAgMzQgMTg0IDUwIDMwMyA5MSA2NzQgNjggNjA0IDEzMSYjMTA7OTI1IDIwMCAxMDExIDQ1IDU1IDY4IDIxIDE4NCAtMjcxIDQzIC0xMTAgMTAwIC0yNjMgMTI2IC0zNDAgMTgyIC01NDkgMjg0JiMxMDstMTUwNyAxODUgLTE3MzIgLTIyIC01MSAtOTkgLTExMCAtMzM1IC0yNTggLTIzMSAtMTQ1IC0zMTcgLTIwOCAtMzg5IC0yODYmIzEwOy03MiAtNzcgLTEwNyAtMTQ1IC0xMzAgLTI0NyAtMTcgLTc4IC03MiAtNDA3IC0xMzEgLTc5MiAtNTkgLTM4MSAtOTMgLTUyMiYjMTA7LTE1NyAtNjQzIC0xNyAtMzEgLTc2IC0xMDYgLTEzMSAtMTY1IC0xNTcgLTE3MCAtMTk2IC0yMjggLTI0MiAtMzY0IC0xMyAtMzkmIzEwOy0zNSAtODMgLTQ4IC05NyAtMzkgLTQyIC01MCAtNzAgLTQzIC0xMTMgOSAtNTMgMjggLTg4IDgxIC0xNDggNzYgLTg1IDc5IC05NiYjMTA7ODUgLTI3NiAzIC0xMTUgOSAtMTY2IDE5IC0xNzcgMjggLTM0IDg4IC00MCAzODEgLTM5IDI3MiAxIDQyNCAxMiA0NDQgMzIgMTYmIzEwOzE2IC01NSAxMTAgLTI3MSAzNTYgLTE1NCAxNzQgLTE4MyAyMjYgLTE4MyAzMjIgMCAyNTAgMzA2IDgyMCA2OTkgMTMwMiAxMDYmIzEwOzEzMSAzNDYgMzc3IDQyNiA0MzcgODEgNjIgMjA3IDEyMCA0MTAgMTg4IDQ5OSAxNjggOTY0IDQ3OSAxNDM1IDk2MSAxODMgMTg4JiMxMDszMzAgMzY4IDQ4MiA1OTIgMTU5IDIzNSAyMTMgMzAyIDI0NCAzMDIgNTEgMCAxNTQgLTExMSAxNTQgLTE2NiAwIC00MiAtNzAmIzEwOy0xMjYgLTMyOSAtMzkyIC0zMDkgLTMxOCAtNDI1IC00NDggLTU3NCAtNjQyIC02MSAtODAgLTE1NCAtMTk2IC0yMDYgLTI1OCYjMTA7LTI5OCAtMzUyIC0zNTIgLTQ2MyAtMjc3IC01NzEgNjEgLTg3IDE5NCAtMTcxIDYxMiAtMzgyIDM5MiAtMTk5IDQ5NyAtMjY0JiMxMDs2MTEgLTM4MSAxMjMgLTEyNiAxNjEgLTIzMCAxNzMgLTQ3NiA5IC0xODAgMjAgLTIyNCA1NSAtMjMwIDU0IC0xMCA5MiAtNzcmIzEwOzEyMSAtMjEwIDE1IC03MiAyMiAtODcgNDkgLTEwOCA4MCAtNjAgMzk4IC0xNzggNTE3IC0xOTAgNTkgLTYgNjYgLTQgOTUgMjAmIzEwOzY4IDU3IDk2IDE3MCA2OSAyNzcgLTQ2IDE3NyAtMjA1IDM1OSAtNjIxIDcwOCAtNTIyIDQzOCAtNzM1IDY2NSAtODA5IDg2MiYjMTA7LTEyMyAzMjkgMjQgNzEwIDI5MSA3NTQgOTQgMTUgMjE4IC00MCAzODggLTE3NCAxMTEgLTg4IDE3NSAtMTE0IDI2MiAtMTA5IDU1JiMxMDszIDcwIDkgMTIwIDQ2IDE2MCAxMTggNDUwIDIyMyA5OTggMzYwIDYwOSAxNTMgNzk5IDE4NSA4NzkgMTQ3IDUyIC0yNSAxNDMmIzEwOy0xMTAgMTgxIC0xNzAgMTggLTI3IDQ1IC04NCA2MCAtMTI1IDM1IC05MSA4NiAtMTQ2IDIyNCAtMjQwIDMzNyAtMjMwIDg0MCYjMTA7LTgwMiAxMDAyIC0xMTM3IDk1IC0xOTcgMTE5IC0zMDQgMTM5IC02MTMgMTUgLTIyNCAyOCAtMzU1IDQxIC00MDQgNyAtMjUgMjgmIzEwOy01NiA1OCAtODUgNTUgLTUzIDg1IC0xMjIgOTYgLTIyMSAxMyAtMTIxIDUzIC0xNzcgMTg5IC0yNjcgODMgLTU1IDIyOCAtMTI0JiMxMDszMDggLTE0NyA4MyAtMjQgMjQ4IC01NiAyODggLTU2IDU3IDAgMjY4IDQ3IDMwMyA2OCA0OCAyOCA0MyA3NiAtMjEgMjA1IC0xMzMmIzEwOzI2NyAtMjg2IDQ0MyAtNDk4IDU3MiAtMjI4IDEzOSAtMzA3IDIwNCAtMzkyIDMyOSAtMTMyIDE5MSAtMjIzIDQzOCAtMzAzIDgyNiYjMTA7LTgxIDM5MSAtMjAwIDgyOSAtMjkzIDEwNzkgLTcxIDE4OCAtOTEgMjk3IC05MSA0ODYgMCAxNTEgMSAxNjMgMjUgMjEwIDIwIDQwJiMxMDszMCA1MCA1MCA1MCA0NSAwIDU1IC00MSA1MCAtMjAwIC03IC0yNDAgLTUgLTI2NiAxOSAtMzEzIDMxIC02MSA5MCAtMTIyIDEzNiYjMTA7LTE0MyA4NCAtMzYgMzM5IC0zMiA0MjIgOCA0NiAyMSAxNTIgMTIwIDIwOCAxOTMgNTUgNzIgODMgMTI4IDk1IDE5MiA2IDI4IDIxJiMxMDs2NiAzNSA4NCAzNSA0NiA0NSAxMTEgNDUgMjk1IGwwIDE1OSAtMTAwIDAgYy0xMDcgMCAtMTk3IDIyIC0yMzIgNTggLTM3IDM3JiMxMDstNjMgMTk1IC0xMDMgNjI3IC00NCA0ODAgLTY3IDYwMCAtMTcwIDkwNSAtNjcgMTk3IC05NCAyNTMgLTE0MyAyOTMgLTc4IDY0JiMxMDstMjI1IDIxNiAtMzEzIDMyNCAtMTM2IDE2NyAtMTM0IDE3MyAzMCA4NyAyNTUgLTEzNCA0NzUgLTMxOSA2MDEgLTUwNCAxMTAmIzEwOy0xNjIgMTIyIC0yMzAgMTQwIC03ODUgMTYgLTQ2NSAzNiAtNjM0IDg4IC03MTIgMjYgLTQxIDcwIC01NyAxNTIgLTU3IDEwNSAtMSYjMTA7MTQ2IDIyIDI2MiAxNDIgMjM5IDI1MCAzMzEgNDY4IDQ1OCAxMDc3IDU0IDI2NCA4OSAzOTUgMTQ2IDU0NiAxNDcgMzkxIDM3NCYjMTA7NzQ5IDY0NiAxMDIwIDExNSAxMTUgMjI4IDIwMiAzNzUgMjg4IDEwMyA2MSAxNjMgMTA2IDE2MyAxMjMgMCAzOSAtMTMzIDI5JiMxMDstMzQ1IC0yNyAtMTgyIC00OCAtMzI0IC02NyAtNDk1IC02NiAtMjA5IDAgLTI4NSAyNyAtNDA4IDE0NSAtNjAgNTcgLTc1IDg3JiMxMDstNTcgMTEzIDMzIDQ3IDkxIDM1IDE1MyAtMzEgNzQgLTc5IDE4MiAtMTE2IDMzNyAtMTE1IDEwNSAwIDE3OCAxMyAzNjggNjMmIzEwOzE4MyA0OCAyNDMgNTIgNDIyIDMxIDIwOCAtMjQgMzMxIC0xNyA1MDUgMjkgMTg3IDQ5IDI3MiA3OSAzMjQgMTE1IDc0IDUxIDE3NSYjMTA7MjIwIDIxNyAzNjQgMjEgNzUgMjEgNzggNSAxMzEgLTI0IDc2IC03MyAxMzYgLTE1MyAxODkgLTkxIDYwIC05MyA2MSAtMjkzJiMxMDsxNDEgLTI0NyAxMDAgLTMwNyAxMzcgLTQ2OCAyODggLTE3NyAxNjcgLTI4MiAyNDEgLTQ3NyAzMzggLTI3NSAxMzYgLTQ5MSAxOTQmIzEwOy03MDAgMTg4IC0xMTkgLTMgLTEyMSAtNCAtMjA3IC00NyAtNzcgLTM4IC05MyAtNDMgLTEzMCAtMzcgLTkxIDE1IC0xNzEgODUmIzEwOy0yMDcgMTgxIC0yNyA3MyAtMjYgMTE3IDQgMjE0IDQ3IDE0OCAxMzUgMjgzIDMwNCA0NjYgMTE4IDEyNyAxMzYgMTU5IDEwNiYjMTA7MTgyIC0yNiAxOCAtNDggMTYgLTE0NSAtMTd6IG05MjkgLTE1MDcgYzYxIC00OSAzNyAtMjEzIC0zMCAtMjEzIC0yNiAwIC0xMTImIzEwOzM1IC0xNTkgNjUgLTUzIDM0IC01MSA1NSA5IDk5IDg4IDY1IDE0MiA4MCAxODAgNDl6IG0xMDIxIC00MzYgYzAgLTcgLTExIC0yOCYjMTA7LTI1IC00NyAtMzQgLTQ2IC0zMiAtNjAgOCAtNjAgMTA3IDAgMTc4IC03MCAxMTkgLTExNyAtMjcgLTIyIC01MiAtMTUgLTYzIDE3JiMxMDstNiAxNyAtMTUgMzAgLTIwIDMwIC01IDAgLTEyIDAgLTE2IDAgLTUgMSAtMTAgLTE0IC0xMyAtMzEgLTYgLTM4IC0yOCAtNTQmIzEwOy02MiAtNDYgLTQwIDEwIC02OCAzOSAtNzcgNzggLTEzIDU1IDcgOTcgNjcgMTQ2IDUzIDQzIDgyIDU0IDgyIDMweiIvPgo8cGF0aCBkPSJNMTE0MTYgOTgzNiBjLTU1IC0xNTYgLTg1IC0yMDggLTE2OCAtMjkyIC00NSAtNDYgLTU5IC02NyAtNTYgLTg1IDUmIzEwOy0zNSA1MSAtNTMgMTMzIC01MyAxMjAgMSAxNzMgMzAgMTk0IDEwOSAxNCA1MCAxNCAyMjUgMSAyOTYgLTE1IDc4IC0zOSAxNTkmIzEwOy00OCAxNTkgLTUgMCAtMzAgLTYwIC01NiAtMTM0eiIvPgo8L2c+Cjwvc3ZnPg==;" vertex="1" parent="1">
                    <mxGeometry x="544.4" y="60" width="102.04" height="83" as="geometry"/>
                </mxCell>
                <mxCell id="21" value="" style="shape=image;verticalLabelPosition=bottom;labelBackgroundColor=default;verticalAlign=top;aspect=fixed;imageAspect=0;image=data:image/svg+xml,PHN2ZyB4bWxucz0iaHR0cDovL3d3dy53My5vcmcvMjAwMC9zdmciIHByZXNlcnZlQXNwZWN0UmF0aW89InhNaWRZTWlkIG1lZXQiIHZpZXdCb3g9IjAuNDE0MDYyNSAwLjE3MDE5OTM0OTUyMjU5MDY0IDEyNzkuMzI5ODMzOTg0Mzc1IDEwMzkuODI5ODMzOTg0Mzc1IiBoZWlnaHQ9IjEwMzkuODI5ODMzOTg0Mzc1IiB3aWR0aD0iMTI3OS4zMjk4MzM5ODQzNzUiIHZlcnNpb249IjEuMCI+CjxnIHN0cm9rZT0ibm9uZSIgZmlsbD0iIzAwMDAwMCIgdHJhbnNmb3JtPSJ0cmFuc2xhdGUoMC4wMDAwMDAsMTA0MC4wMDAwMDApIHNjYWxlKDAuMTAwMDAwLC0wLjEwMDAwMCkiPgo8cGF0aCBkPSJNMTA0MjAgMTAzNzAgYy0xMjUgLTQxIC0xNzUgLTczIC0yNzYgLTE3NCAtMTQ1IC0xNDUgLTI4MSAtMzM5IC0zODcmIzEwOy01NTEgLTc3IC0xNTQgLTkwIC0yMDMgLTkwIC0zNDAgMSAtMjI1IDc3IC00MDYgMTgxIC00MzUgNTQgLTE1IDE4MiAtMTIgMjY5JiMxMDs2IDE2NCAzNCAyNzkgOTAgNDExIDIwMCA4MCA2NyAxMDcgNzcgMTE3IDQ1IDggLTI2IC02IC01NyAtNjAgLTEyOSAtODEgLTEwOCYjMTA7LTI3MyAtMjU3IC0zNjQgLTI4MiAtNTMgLTE1IC0yNDQgLTEyIC0zNDEgNSAtMTAxIDE4IC0yMTUgNzAgLTI1OCAxMTkgLTE2IDE5JiMxMDstMzggNTUgLTQ4IDgxIC0xNSA0MSAtMTYgNTYgLTYgMTEzIDYgMzcgOSA2OCA4IDcwIC03IDYgLTE2MiAtMTE3IC0yNTEgLTE5OSYjMTA7LTQ5IC00NSAtMjExIC0xOTcgLTM2MCAtMzM4IC0zNTcgLTMzOCAtMzk2IC0zNzUgLTQ5MCAtNDU3IC0zMTkgLTI4MSAtNjE0JiMxMDstNDkwIC04NTAgLTYwNCAtMTYxIC03OCAtMjA1IC05MSAtNTI1IC0xNTUgLTM0NiAtNjkgLTUxMCAtODEgLTEwNTAgLTcxIC02MjImIzEwOzEwIC0xMDE4IDQyIC0xMzQwIDEwNiAtODAgMTYgLTIzMCA0NiAtMzM1IDY1IC0yNDYgNDcgLTM2OSA3NCAtNTk1IDEzNSAtMjc2JiMxMDs3NCAtMzk2IDgzIC01ODAgNDUgLTE2MSAtMzQgLTI5NiAtOTUgLTY2MCAtMjk5IC0xMjQgLTcwIC0yNTAgLTEzNiAtMjc5IC0xNDcmIzEwOy0zMCAtMTEgLTc2IC0zNiAtMTAyIC01NSAtNTggLTQyIC0xMTkgLTY5IC0yOTAgLTEyOSAtMTQ5IC01MyAtMjI1IC04OCAtMzE0JiMxMDstMTQ4IC0xMjcgLTg2IC0yNDMgLTIyMCAtMjcxIC0zMTUgLTE5IC02MSAtMzIgLTM2NCAtNDQgLTk5MiAtMTMgLTYzNyAtMjcmIzEwOy04MjAgLTg1IC0xMTA1IC0zMiAtMTU0IC03MCAtMjcwIC0xNTIgLTQ1OCAtMTEwIC0yNTUgLTExOSAtMjcxIC0zNTEgLTU4MCYjMTA7LTIyNiAtMzAyIC0yNTggLTM2OCAtMjkzIC02MDUgLTM0IC0yMzUgLTU5IC0zMjAgLTE0NCAtNDg0IC00MSAtODEgLTkwIC0xODImIzEwOy0xMDkgLTIyNSAtMTggLTQzIC01MSAtMTEzIC03MSAtMTU2IC0zNSAtNzEgLTM3IC03OSAtMjIgLTk0IDI0IC0yNCA5MiAtMTgmIzEwOzE5MyAxOCAxNjMgNTcgMjI2IDk4IDI1NiAxNjYgMTYgMzYgMjEgODEgMjggMjUyIDExIDI2MCAyNiAzNTAgMTAwIDYyOSAxMTAmIzEwOzQwNiAxMjAgNDI0IDMxMCA1MzMgMjQ1IDE0MCAzODAgNDAxIDQ3NCA5MjAgMzQgMTg0IDUwIDMwMyA5MSA2NzQgNjggNjA0IDEzMSYjMTA7OTI1IDIwMCAxMDExIDQ1IDU1IDY4IDIxIDE4NCAtMjcxIDQzIC0xMTAgMTAwIC0yNjMgMTI2IC0zNDAgMTgyIC01NDkgMjg0JiMxMDstMTUwNyAxODUgLTE3MzIgLTIyIC01MSAtOTkgLTExMCAtMzM1IC0yNTggLTIzMSAtMTQ1IC0zMTcgLTIwOCAtMzg5IC0yODYmIzEwOy03MiAtNzcgLTEwNyAtMTQ1IC0xMzAgLTI0NyAtMTcgLTc4IC03MiAtNDA3IC0xMzEgLTc5MiAtNTkgLTM4MSAtOTMgLTUyMiYjMTA7LTE1NyAtNjQzIC0xNyAtMzEgLTc2IC0xMDYgLTEzMSAtMTY1IC0xNTcgLTE3MCAtMTk2IC0yMjggLTI0MiAtMzY0IC0xMyAtMzkmIzEwOy0zNSAtODMgLTQ4IC05NyAtMzkgLTQyIC01MCAtNzAgLTQzIC0xMTMgOSAtNTMgMjggLTg4IDgxIC0xNDggNzYgLTg1IDc5IC05NiYjMTA7ODUgLTI3NiAzIC0xMTUgOSAtMTY2IDE5IC0xNzcgMjggLTM0IDg4IC00MCAzODEgLTM5IDI3MiAxIDQyNCAxMiA0NDQgMzIgMTYmIzEwOzE2IC01NSAxMTAgLTI3MSAzNTYgLTE1NCAxNzQgLTE4MyAyMjYgLTE4MyAzMjIgMCAyNTAgMzA2IDgyMCA2OTkgMTMwMiAxMDYmIzEwOzEzMSAzNDYgMzc3IDQyNiA0MzcgODEgNjIgMjA3IDEyMCA0MTAgMTg4IDQ5OSAxNjggOTY0IDQ3OSAxNDM1IDk2MSAxODMgMTg4JiMxMDszMzAgMzY4IDQ4MiA1OTIgMTU5IDIzNSAyMTMgMzAyIDI0NCAzMDIgNTEgMCAxNTQgLTExMSAxNTQgLTE2NiAwIC00MiAtNzAmIzEwOy0xMjYgLTMyOSAtMzkyIC0zMDkgLTMxOCAtNDI1IC00NDggLTU3NCAtNjQyIC02MSAtODAgLTE1NCAtMTk2IC0yMDYgLTI1OCYjMTA7LTI5OCAtMzUyIC0zNTIgLTQ2MyAtMjc3IC01NzEgNjEgLTg3IDE5NCAtMTcxIDYxMiAtMzgyIDM5MiAtMTk5IDQ5NyAtMjY0JiMxMDs2MTEgLTM4MSAxMjMgLTEyNiAxNjEgLTIzMCAxNzMgLTQ3NiA5IC0xODAgMjAgLTIyNCA1NSAtMjMwIDU0IC0xMCA5MiAtNzcmIzEwOzEyMSAtMjEwIDE1IC03MiAyMiAtODcgNDkgLTEwOCA4MCAtNjAgMzk4IC0xNzggNTE3IC0xOTAgNTkgLTYgNjYgLTQgOTUgMjAmIzEwOzY4IDU3IDk2IDE3MCA2OSAyNzcgLTQ2IDE3NyAtMjA1IDM1OSAtNjIxIDcwOCAtNTIyIDQzOCAtNzM1IDY2NSAtODA5IDg2MiYjMTA7LTEyMyAzMjkgMjQgNzEwIDI5MSA3NTQgOTQgMTUgMjE4IC00MCAzODggLTE3NCAxMTEgLTg4IDE3NSAtMTE0IDI2MiAtMTA5IDU1JiMxMDszIDcwIDkgMTIwIDQ2IDE2MCAxMTggNDUwIDIyMyA5OTggMzYwIDYwOSAxNTMgNzk5IDE4NSA4NzkgMTQ3IDUyIC0yNSAxNDMmIzEwOy0xMTAgMTgxIC0xNzAgMTggLTI3IDQ1IC04NCA2MCAtMTI1IDM1IC05MSA4NiAtMTQ2IDIyNCAtMjQwIDMzNyAtMjMwIDg0MCYjMTA7LTgwMiAxMDAyIC0xMTM3IDk1IC0xOTcgMTE5IC0zMDQgMTM5IC02MTMgMTUgLTIyNCAyOCAtMzU1IDQxIC00MDQgNyAtMjUgMjgmIzEwOy01NiA1OCAtODUgNTUgLTUzIDg1IC0xMjIgOTYgLTIyMSAxMyAtMTIxIDUzIC0xNzcgMTg5IC0yNjcgODMgLTU1IDIyOCAtMTI0JiMxMDszMDggLTE0NyA4MyAtMjQgMjQ4IC01NiAyODggLTU2IDU3IDAgMjY4IDQ3IDMwMyA2OCA0OCAyOCA0MyA3NiAtMjEgMjA1IC0xMzMmIzEwOzI2NyAtMjg2IDQ0MyAtNDk4IDU3MiAtMjI4IDEzOSAtMzA3IDIwNCAtMzkyIDMyOSAtMTMyIDE5MSAtMjIzIDQzOCAtMzAzIDgyNiYjMTA7LTgxIDM5MSAtMjAwIDgyOSAtMjkzIDEwNzkgLTcxIDE4OCAtOTEgMjk3IC05MSA0ODYgMCAxNTEgMSAxNjMgMjUgMjEwIDIwIDQwJiMxMDszMCA1MCA1MCA1MCA0NSAwIDU1IC00MSA1MCAtMjAwIC03IC0yNDAgLTUgLTI2NiAxOSAtMzEzIDMxIC02MSA5MCAtMTIyIDEzNiYjMTA7LTE0MyA4NCAtMzYgMzM5IC0zMiA0MjIgOCA0NiAyMSAxNTIgMTIwIDIwOCAxOTMgNTUgNzIgODMgMTI4IDk1IDE5MiA2IDI4IDIxJiMxMDs2NiAzNSA4NCAzNSA0NiA0NSAxMTEgNDUgMjk1IGwwIDE1OSAtMTAwIDAgYy0xMDcgMCAtMTk3IDIyIC0yMzIgNTggLTM3IDM3JiMxMDstNjMgMTk1IC0xMDMgNjI3IC00NCA0ODAgLTY3IDYwMCAtMTcwIDkwNSAtNjcgMTk3IC05NCAyNTMgLTE0MyAyOTMgLTc4IDY0JiMxMDstMjI1IDIxNiAtMzEzIDMyNCAtMTM2IDE2NyAtMTM0IDE3MyAzMCA4NyAyNTUgLTEzNCA0NzUgLTMxOSA2MDEgLTUwNCAxMTAmIzEwOy0xNjIgMTIyIC0yMzAgMTQwIC03ODUgMTYgLTQ2NSAzNiAtNjM0IDg4IC03MTIgMjYgLTQxIDcwIC01NyAxNTIgLTU3IDEwNSAtMSYjMTA7MTQ2IDIyIDI2MiAxNDIgMjM5IDI1MCAzMzEgNDY4IDQ1OCAxMDc3IDU0IDI2NCA4OSAzOTUgMTQ2IDU0NiAxNDcgMzkxIDM3NCYjMTA7NzQ5IDY0NiAxMDIwIDExNSAxMTUgMjI4IDIwMiAzNzUgMjg4IDEwMyA2MSAxNjMgMTA2IDE2MyAxMjMgMCAzOSAtMTMzIDI5JiMxMDstMzQ1IC0yNyAtMTgyIC00OCAtMzI0IC02NyAtNDk1IC02NiAtMjA5IDAgLTI4NSAyNyAtNDA4IDE0NSAtNjAgNTcgLTc1IDg3JiMxMDstNTcgMTEzIDMzIDQ3IDkxIDM1IDE1MyAtMzEgNzQgLTc5IDE4MiAtMTE2IDMzNyAtMTE1IDEwNSAwIDE3OCAxMyAzNjggNjMmIzEwOzE4MyA0OCAyNDMgNTIgNDIyIDMxIDIwOCAtMjQgMzMxIC0xNyA1MDUgMjkgMTg3IDQ5IDI3MiA3OSAzMjQgMTE1IDc0IDUxIDE3NSYjMTA7MjIwIDIxNyAzNjQgMjEgNzUgMjEgNzggNSAxMzEgLTI0IDc2IC03MyAxMzYgLTE1MyAxODkgLTkxIDYwIC05MyA2MSAtMjkzJiMxMDsxNDEgLTI0NyAxMDAgLTMwNyAxMzcgLTQ2OCAyODggLTE3NyAxNjcgLTI4MiAyNDEgLTQ3NyAzMzggLTI3NSAxMzYgLTQ5MSAxOTQmIzEwOy03MDAgMTg4IC0xMTkgLTMgLTEyMSAtNCAtMjA3IC00NyAtNzcgLTM4IC05MyAtNDMgLTEzMCAtMzcgLTkxIDE1IC0xNzEgODUmIzEwOy0yMDcgMTgxIC0yNyA3MyAtMjYgMTE3IDQgMjE0IDQ3IDE0OCAxMzUgMjgzIDMwNCA0NjYgMTE4IDEyNyAxMzYgMTU5IDEwNiYjMTA7MTgyIC0yNiAxOCAtNDggMTYgLTE0NSAtMTd6IG05MjkgLTE1MDcgYzYxIC00OSAzNyAtMjEzIC0zMCAtMjEzIC0yNiAwIC0xMTImIzEwOzM1IC0xNTkgNjUgLTUzIDM0IC01MSA1NSA5IDk5IDg4IDY1IDE0MiA4MCAxODAgNDl6IG0xMDIxIC00MzYgYzAgLTcgLTExIC0yOCYjMTA7LTI1IC00NyAtMzQgLTQ2IC0zMiAtNjAgOCAtNjAgMTA3IDAgMTc4IC03MCAxMTkgLTExNyAtMjcgLTIyIC01MiAtMTUgLTYzIDE3JiMxMDstNiAxNyAtMTUgMzAgLTIwIDMwIC01IDAgLTEyIDAgLTE2IDAgLTUgMSAtMTAgLTE0IC0xMyAtMzEgLTYgLTM4IC0yOCAtNTQmIzEwOy02MiAtNDYgLTQwIDEwIC02OCAzOSAtNzcgNzggLTEzIDU1IDcgOTcgNjcgMTQ2IDUzIDQzIDgyIDU0IDgyIDMweiIvPgo8cGF0aCBkPSJNMTE0MTYgOTgzNiBjLTU1IC0xNTYgLTg1IC0yMDggLTE2OCAtMjkyIC00NSAtNDYgLTU5IC02NyAtNTYgLTg1IDUmIzEwOy0zNSA1MSAtNTMgMTMzIC01MyAxMjAgMSAxNzMgMzAgMTk0IDEwOSAxNCA1MCAxNCAyMjUgMSAyOTYgLTE1IDc4IC0zOSAxNTkmIzEwOy00OCAxNTkgLTUgMCAtMzAgLTYwIC01NiAtMTM0eiIvPgo8L2c+Cjwvc3ZnPg==;" vertex="1" parent="1">
                    <mxGeometry x="550" y="172" width="102.04" height="83" as="geometry"/>
                </mxCell>
                <mxCell id="22" value="" style="shape=image;verticalLabelPosition=bottom;labelBackgroundColor=default;verticalAlign=top;aspect=fixed;imageAspect=0;image=data:image/svg+xml,PHN2ZyB4bWxucz0iaHR0cDovL3d3dy53My5vcmcvMjAwMC9zdmciIHByZXNlcnZlQXNwZWN0UmF0aW89InhNaWRZTWlkIG1lZXQiIHZpZXdCb3g9IjAuNDE0MDYyNSAwLjE3MDE5OTM0OTUyMjU5MDY0IDEyNzkuMzI5ODMzOTg0Mzc1IDEwMzkuODI5ODMzOTg0Mzc1IiBoZWlnaHQ9IjEwMzkuODI5ODMzOTg0Mzc1IiB3aWR0aD0iMTI3OS4zMjk4MzM5ODQzNzUiIHZlcnNpb249IjEuMCI+CjxnIHN0cm9rZT0ibm9uZSIgZmlsbD0iIzAwMDAwMCIgdHJhbnNmb3JtPSJ0cmFuc2xhdGUoMC4wMDAwMDAsMTA0MC4wMDAwMDApIHNjYWxlKDAuMTAwMDAwLC0wLjEwMDAwMCkiPgo8cGF0aCBkPSJNMTA0MjAgMTAzNzAgYy0xMjUgLTQxIC0xNzUgLTczIC0yNzYgLTE3NCAtMTQ1IC0xNDUgLTI4MSAtMzM5IC0zODcmIzEwOy01NTEgLTc3IC0xNTQgLTkwIC0yMDMgLTkwIC0zNDAgMSAtMjI1IDc3IC00MDYgMTgxIC00MzUgNTQgLTE1IDE4MiAtMTIgMjY5JiMxMDs2IDE2NCAzNCAyNzkgOTAgNDExIDIwMCA4MCA2NyAxMDcgNzcgMTE3IDQ1IDggLTI2IC02IC01NyAtNjAgLTEyOSAtODEgLTEwOCYjMTA7LTI3MyAtMjU3IC0zNjQgLTI4MiAtNTMgLTE1IC0yNDQgLTEyIC0zNDEgNSAtMTAxIDE4IC0yMTUgNzAgLTI1OCAxMTkgLTE2IDE5JiMxMDstMzggNTUgLTQ4IDgxIC0xNSA0MSAtMTYgNTYgLTYgMTEzIDYgMzcgOSA2OCA4IDcwIC03IDYgLTE2MiAtMTE3IC0yNTEgLTE5OSYjMTA7LTQ5IC00NSAtMjExIC0xOTcgLTM2MCAtMzM4IC0zNTcgLTMzOCAtMzk2IC0zNzUgLTQ5MCAtNDU3IC0zMTkgLTI4MSAtNjE0JiMxMDstNDkwIC04NTAgLTYwNCAtMTYxIC03OCAtMjA1IC05MSAtNTI1IC0xNTUgLTM0NiAtNjkgLTUxMCAtODEgLTEwNTAgLTcxIC02MjImIzEwOzEwIC0xMDE4IDQyIC0xMzQwIDEwNiAtODAgMTYgLTIzMCA0NiAtMzM1IDY1IC0yNDYgNDcgLTM2OSA3NCAtNTk1IDEzNSAtMjc2JiMxMDs3NCAtMzk2IDgzIC01ODAgNDUgLTE2MSAtMzQgLTI5NiAtOTUgLTY2MCAtMjk5IC0xMjQgLTcwIC0yNTAgLTEzNiAtMjc5IC0xNDcmIzEwOy0zMCAtMTEgLTc2IC0zNiAtMTAyIC01NSAtNTggLTQyIC0xMTkgLTY5IC0yOTAgLTEyOSAtMTQ5IC01MyAtMjI1IC04OCAtMzE0JiMxMDstMTQ4IC0xMjcgLTg2IC0yNDMgLTIyMCAtMjcxIC0zMTUgLTE5IC02MSAtMzIgLTM2NCAtNDQgLTk5MiAtMTMgLTYzNyAtMjcmIzEwOy04MjAgLTg1IC0xMTA1IC0zMiAtMTU0IC03MCAtMjcwIC0xNTIgLTQ1OCAtMTEwIC0yNTUgLTExOSAtMjcxIC0zNTEgLTU4MCYjMTA7LTIyNiAtMzAyIC0yNTggLTM2OCAtMjkzIC02MDUgLTM0IC0yMzUgLTU5IC0zMjAgLTE0NCAtNDg0IC00MSAtODEgLTkwIC0xODImIzEwOy0xMDkgLTIyNSAtMTggLTQzIC01MSAtMTEzIC03MSAtMTU2IC0zNSAtNzEgLTM3IC03OSAtMjIgLTk0IDI0IC0yNCA5MiAtMTgmIzEwOzE5MyAxOCAxNjMgNTcgMjI2IDk4IDI1NiAxNjYgMTYgMzYgMjEgODEgMjggMjUyIDExIDI2MCAyNiAzNTAgMTAwIDYyOSAxMTAmIzEwOzQwNiAxMjAgNDI0IDMxMCA1MzMgMjQ1IDE0MCAzODAgNDAxIDQ3NCA5MjAgMzQgMTg0IDUwIDMwMyA5MSA2NzQgNjggNjA0IDEzMSYjMTA7OTI1IDIwMCAxMDExIDQ1IDU1IDY4IDIxIDE4NCAtMjcxIDQzIC0xMTAgMTAwIC0yNjMgMTI2IC0zNDAgMTgyIC01NDkgMjg0JiMxMDstMTUwNyAxODUgLTE3MzIgLTIyIC01MSAtOTkgLTExMCAtMzM1IC0yNTggLTIzMSAtMTQ1IC0zMTcgLTIwOCAtMzg5IC0yODYmIzEwOy03MiAtNzcgLTEwNyAtMTQ1IC0xMzAgLTI0NyAtMTcgLTc4IC03MiAtNDA3IC0xMzEgLTc5MiAtNTkgLTM4MSAtOTMgLTUyMiYjMTA7LTE1NyAtNjQzIC0xNyAtMzEgLTc2IC0xMDYgLTEzMSAtMTY1IC0xNTcgLTE3MCAtMTk2IC0yMjggLTI0MiAtMzY0IC0xMyAtMzkmIzEwOy0zNSAtODMgLTQ4IC05NyAtMzkgLTQyIC01MCAtNzAgLTQzIC0xMTMgOSAtNTMgMjggLTg4IDgxIC0xNDggNzYgLTg1IDc5IC05NiYjMTA7ODUgLTI3NiAzIC0xMTUgOSAtMTY2IDE5IC0xNzcgMjggLTM0IDg4IC00MCAzODEgLTM5IDI3MiAxIDQyNCAxMiA0NDQgMzIgMTYmIzEwOzE2IC01NSAxMTAgLTI3MSAzNTYgLTE1NCAxNzQgLTE4MyAyMjYgLTE4MyAzMjIgMCAyNTAgMzA2IDgyMCA2OTkgMTMwMiAxMDYmIzEwOzEzMSAzNDYgMzc3IDQyNiA0MzcgODEgNjIgMjA3IDEyMCA0MTAgMTg4IDQ5OSAxNjggOTY0IDQ3OSAxNDM1IDk2MSAxODMgMTg4JiMxMDszMzAgMzY4IDQ4MiA1OTIgMTU5IDIzNSAyMTMgMzAyIDI0NCAzMDIgNTEgMCAxNTQgLTExMSAxNTQgLTE2NiAwIC00MiAtNzAmIzEwOy0xMjYgLTMyOSAtMzkyIC0zMDkgLTMxOCAtNDI1IC00NDggLTU3NCAtNjQyIC02MSAtODAgLTE1NCAtMTk2IC0yMDYgLTI1OCYjMTA7LTI5OCAtMzUyIC0zNTIgLTQ2MyAtMjc3IC01NzEgNjEgLTg3IDE5NCAtMTcxIDYxMiAtMzgyIDM5MiAtMTk5IDQ5NyAtMjY0JiMxMDs2MTEgLTM4MSAxMjMgLTEyNiAxNjEgLTIzMCAxNzMgLTQ3NiA5IC0xODAgMjAgLTIyNCA1NSAtMjMwIDU0IC0xMCA5MiAtNzcmIzEwOzEyMSAtMjEwIDE1IC03MiAyMiAtODcgNDkgLTEwOCA4MCAtNjAgMzk4IC0xNzggNTE3IC0xOTAgNTkgLTYgNjYgLTQgOTUgMjAmIzEwOzY4IDU3IDk2IDE3MCA2OSAyNzcgLTQ2IDE3NyAtMjA1IDM1OSAtNjIxIDcwOCAtNTIyIDQzOCAtNzM1IDY2NSAtODA5IDg2MiYjMTA7LTEyMyAzMjkgMjQgNzEwIDI5MSA3NTQgOTQgMTUgMjE4IC00MCAzODggLTE3NCAxMTEgLTg4IDE3NSAtMTE0IDI2MiAtMTA5IDU1JiMxMDszIDcwIDkgMTIwIDQ2IDE2MCAxMTggNDUwIDIyMyA5OTggMzYwIDYwOSAxNTMgNzk5IDE4NSA4NzkgMTQ3IDUyIC0yNSAxNDMmIzEwOy0xMTAgMTgxIC0xNzAgMTggLTI3IDQ1IC04NCA2MCAtMTI1IDM1IC05MSA4NiAtMTQ2IDIyNCAtMjQwIDMzNyAtMjMwIDg0MCYjMTA7LTgwMiAxMDAyIC0xMTM3IDk1IC0xOTcgMTE5IC0zMDQgMTM5IC02MTMgMTUgLTIyNCAyOCAtMzU1IDQxIC00MDQgNyAtMjUgMjgmIzEwOy01NiA1OCAtODUgNTUgLTUzIDg1IC0xMjIgOTYgLTIyMSAxMyAtMTIxIDUzIC0xNzcgMTg5IC0yNjcgODMgLTU1IDIyOCAtMTI0JiMxMDszMDggLTE0NyA4MyAtMjQgMjQ4IC01NiAyODggLTU2IDU3IDAgMjY4IDQ3IDMwMyA2OCA0OCAyOCA0MyA3NiAtMjEgMjA1IC0xMzMmIzEwOzI2NyAtMjg2IDQ0MyAtNDk4IDU3MiAtMjI4IDEzOSAtMzA3IDIwNCAtMzkyIDMyOSAtMTMyIDE5MSAtMjIzIDQzOCAtMzAzIDgyNiYjMTA7LTgxIDM5MSAtMjAwIDgyOSAtMjkzIDEwNzkgLTcxIDE4OCAtOTEgMjk3IC05MSA0ODYgMCAxNTEgMSAxNjMgMjUgMjEwIDIwIDQwJiMxMDszMCA1MCA1MCA1MCA0NSAwIDU1IC00MSA1MCAtMjAwIC03IC0yNDAgLTUgLTI2NiAxOSAtMzEzIDMxIC02MSA5MCAtMTIyIDEzNiYjMTA7LTE0MyA4NCAtMzYgMzM5IC0zMiA0MjIgOCA0NiAyMSAxNTIgMTIwIDIwOCAxOTMgNTUgNzIgODMgMTI4IDk1IDE5MiA2IDI4IDIxJiMxMDs2NiAzNSA4NCAzNSA0NiA0NSAxMTEgNDUgMjk1IGwwIDE1OSAtMTAwIDAgYy0xMDcgMCAtMTk3IDIyIC0yMzIgNTggLTM3IDM3JiMxMDstNjMgMTk1IC0xMDMgNjI3IC00NCA0ODAgLTY3IDYwMCAtMTcwIDkwNSAtNjcgMTk3IC05NCAyNTMgLTE0MyAyOTMgLTc4IDY0JiMxMDstMjI1IDIxNiAtMzEzIDMyNCAtMTM2IDE2NyAtMTM0IDE3MyAzMCA4NyAyNTUgLTEzNCA0NzUgLTMxOSA2MDEgLTUwNCAxMTAmIzEwOy0xNjIgMTIyIC0yMzAgMTQwIC03ODUgMTYgLTQ2NSAzNiAtNjM0IDg4IC03MTIgMjYgLTQxIDcwIC01NyAxNTIgLTU3IDEwNSAtMSYjMTA7MTQ2IDIyIDI2MiAxNDIgMjM5IDI1MCAzMzEgNDY4IDQ1OCAxMDc3IDU0IDI2NCA4OSAzOTUgMTQ2IDU0NiAxNDcgMzkxIDM3NCYjMTA7NzQ5IDY0NiAxMDIwIDExNSAxMTUgMjI4IDIwMiAzNzUgMjg4IDEwMyA2MSAxNjMgMTA2IDE2MyAxMjMgMCAzOSAtMTMzIDI5JiMxMDstMzQ1IC0yNyAtMTgyIC00OCAtMzI0IC02NyAtNDk1IC02NiAtMjA5IDAgLTI4NSAyNyAtNDA4IDE0NSAtNjAgNTcgLTc1IDg3JiMxMDstNTcgMTEzIDMzIDQ3IDkxIDM1IDE1MyAtMzEgNzQgLTc5IDE4MiAtMTE2IDMzNyAtMTE1IDEwNSAwIDE3OCAxMyAzNjggNjMmIzEwOzE4MyA0OCAyNDMgNTIgNDIyIDMxIDIwOCAtMjQgMzMxIC0xNyA1MDUgMjkgMTg3IDQ5IDI3MiA3OSAzMjQgMTE1IDc0IDUxIDE3NSYjMTA7MjIwIDIxNyAzNjQgMjEgNzUgMjEgNzggNSAxMzEgLTI0IDc2IC03MyAxMzYgLTE1MyAxODkgLTkxIDYwIC05MyA2MSAtMjkzJiMxMDsxNDEgLTI0NyAxMDAgLTMwNyAxMzcgLTQ2OCAyODggLTE3NyAxNjcgLTI4MiAyNDEgLTQ3NyAzMzggLTI3NSAxMzYgLTQ5MSAxOTQmIzEwOy03MDAgMTg4IC0xMTkgLTMgLTEyMSAtNCAtMjA3IC00NyAtNzcgLTM4IC05MyAtNDMgLTEzMCAtMzcgLTkxIDE1IC0xNzEgODUmIzEwOy0yMDcgMTgxIC0yNyA3MyAtMjYgMTE3IDQgMjE0IDQ3IDE0OCAxMzUgMjgzIDMwNCA0NjYgMTE4IDEyNyAxMzYgMTU5IDEwNiYjMTA7MTgyIC0yNiAxOCAtNDggMTYgLTE0NSAtMTd6IG05MjkgLTE1MDcgYzYxIC00OSAzNyAtMjEzIC0zMCAtMjEzIC0yNiAwIC0xMTImIzEwOzM1IC0xNTkgNjUgLTUzIDM0IC01MSA1NSA5IDk5IDg4IDY1IDE0MiA4MCAxODAgNDl6IG0xMDIxIC00MzYgYzAgLTcgLTExIC0yOCYjMTA7LTI1IC00NyAtMzQgLTQ2IC0zMiAtNjAgOCAtNjAgMTA3IDAgMTc4IC03MCAxMTkgLTExNyAtMjcgLTIyIC01MiAtMTUgLTYzIDE3JiMxMDstNiAxNyAtMTUgMzAgLTIwIDMwIC01IDAgLTEyIDAgLTE2IDAgLTUgMSAtMTAgLTE0IC0xMyAtMzEgLTYgLTM4IC0yOCAtNTQmIzEwOy02MiAtNDYgLTQwIDEwIC02OCAzOSAtNzcgNzggLTEzIDU1IDcgOTcgNjcgMTQ2IDUzIDQzIDgyIDU0IDgyIDMweiIvPgo8cGF0aCBkPSJNMTE0MTYgOTgzNiBjLTU1IC0xNTYgLTg1IC0yMDggLTE2OCAtMjkyIC00NSAtNDYgLTU5IC02NyAtNTYgLTg1IDUmIzEwOy0zNSA1MSAtNTMgMTMzIC01MyAxMjAgMSAxNzMgMzAgMTk0IDEwOSAxNCA1MCAxNCAyMjUgMSAyOTYgLTE1IDc4IC0zOSAxNTkmIzEwOy00OCAxNTkgLTUgMCAtMzAgLTYwIC01NiAtMTM0eiIvPgo8L2c+Cjwvc3ZnPg==;" vertex="1" parent="1">
                    <mxGeometry x="550" y="285" width="102.04" height="83" as="geometry"/>
                </mxCell>
                <mxCell id="23" value="" style="shape=image;verticalLabelPosition=bottom;labelBackgroundColor=default;verticalAlign=top;aspect=fixed;imageAspect=0;image=data:image/avif,AAAAHGZ0eXBhdmlmAAAAAGF2aWZtaWYxbWlhZgAAAOptZXRhAAAAAAAAACFoZGxyAAAAAAAAAABwaWN0AAAAAAAAAAAAAAAAAAAAAA5waXRtAAAAAAABAAAAImlsb2MAAAAAREAAAQABAAAAAAEOAAEAAAAAAABouwAAACNpaW5mAAAAAAABAAAAFWluZmUCAAAAAAEAAGF2MDEAAAAAamlwcnAAAABLaXBjbwAAABNjb2xybmNseAACAAIABoAAAAAMYXYxQ4EEDAAAAAAUaXNwZQAAAAAAAAJyAAACMQAAABBwaXhpAAAAAAMICAgAAAAXaXBtYQAAAAAAAAABAAEEgYIDhAAAaMNtZGF0EgAKChkmZxjDggQEDQgyqdEBEUABBBBBQPS6zcsvSJgjaCOzOvVASbmOkZQJ9eWhzg7EzWbtNKzxVL4euc3VOBfnLpFwqmAcdC8RJ0mPVJwDbgsZUD6bxaKFeTI1hBMpgAtrCE1YIBhofEidZWOyCp7gsifaU2fOjcnjdsdDupGYIVqdif8RJG+YjAWXJnTG6TcL64edt8O2ULFrkDtZ8p1cE4CRmxq9rhAPCebxSOp/BcdgllTBnPwjw0HqF238QpvhydEaIgL1s6oTGZr7oE2o1jmDWY2ni/UjGVSuWu6o9cP/lzy9R7ufpv4xF13OVjMEvZxa5btud/DegHcFyNzVV+qTIYfuEJkA7tiZjhcwWvKatxOH5uJHShHVjFdmLZ+5IP4OEv4IuKZwZfZxzS0ZosKuWY1+5kYMh7j1N+DhIomjrdWaRDQ8+xpCzE2aAPonnf7ex+BSjiRmx5iNkGky2VD2Hze76PAigi+yGzn1gCGv0pMXaBbaYSxHAt5CgpZ9PoYiMDXzVDzVOS17TCX2V8JTl5aFXwegS21PHtHDEf0Ty1ItSQ/d+CuyJzbEry0qVR4DXncIE1X9V2XewXxwykFcU2OOCw6ourqYyfTelz9leP2eAj96APugsP3Nu7jdbH/qyZlk7EeQbKJGxc0OlPKAXJk30PZgXl2KE9hOiBFC0i+rEp/n1BLXzGIz1fx9MOukjHSi79Mv47JTeVE42rmmhGEbc/WLdiE7wOSo/phrt5K3d6u6WhnqZU1k0r9EUDElHuIikyxsOpxotao3rEdxAoxUuvyARhaaLR44W4ddypWQugJh9bw1uUdSW2pxWvIy14H/TTYQubv/PUrK+mXPbSdJgYKWi8IuNQ9TEvROXYWZNEoSkTNhaWPG+suV5fPsWhgLKoCsBGBOTMYCyoolomHjowFenp2RZxoL1BUyCcBtnpP9m0R6EJNnDWtZI47WfoGA+DtclWie33cJfUDlBRSeMhMhbDv4aR1VmU6cY5s0td5K3MVuE4OJFxOgXHBBoff5kz3YufB+ECp8NXM34Zq3YXPm4ePW4rkaKNAuZ3p6RLUsBSpiA58BRkQ5I2dc64JLsXC/EUYfwTgM1csoT52EvQpIlZ+vKR/jDtwpThtxwQ0XSil20LEAVt+4S6HDVuz8YXvzGxjdXTnk1YG+SnAxqWdX4IDNXlqHrnIMw91Xw2ntAXbuwuaNpESuTzUDW60aa+vE+BIAoDCdcwa8cU2JfBs+hGuiwBKp9PfVAderBJiasiygPp1diJmVuvuQ+MJsj1ZBxWDfhVT9Gx9QTI4+MP3kcpfBrSJCFdefAdawI/D2rUYQnUT0PsKejKOXcXxtOpRtLevifSHOcTUUvrQMft1IXVgvTIyZgIQLdq4ZizhmpvCFF8f564liI+OEOiWxSbP6UsnA9g0/7TC80MaXRrg5bwhhxvzEv9IP8jlFkkRpoyo2HmVa/xTlpghHymqLReWHWsWFQ9594zfBkAsYsiAchTLcnEpAe9jOiqJMMqHhkPBsqzQYfzEtbZEjEom6AdnmGGkRBXMcE3SRYvlJu9BseGngseOkfRApvZt/4o2kP1euBKj90C6upY/M7d83GMeaI0wf4QlFvorachHOshAWzn025p59djc/Wi4pQK3VP43XV06gMbLfsPCzIZou7Krxtn1OAjN5FkPMzgv15Tpfxsuyf+9v6Rox7agIZYGlaxzg90NLva0U0IMqRowgTTwmOMAvSTdhuKnOQOzj/aaRmFkQARaLSbPSGnrU5ZS0zF8JKJoVImayyOgBwKZNVbEvV7SgQ6VC1z9iAyS1Xz9ZWMlrtNZnlltc1WU3D4Z3HDFq3tbRwkH4wNN1kmTH/C83lBpEvmlnHIvjZQXyGbvt8tqX76gcBIDKXEyVK9bnPbm3F1Lvg/FN9zudLXCiEglj8U3nkTL5HDlYVmXfxpPjPnfr6jQj19gzzoFOiskptqLIj4C6AG4Vvro9M4meW7YHwXeRggTq9iFsWRl7Ut+IyTkXARacZIHen3jyvnnsSvOYOgk8lwi0l6NJKnP0pooWUVo1RYmYk3xvYQ4NiZ9HMVezN7G59HDxYaRff4CqTAzv1BgOFSag0tv41g2CGcqnw2h0krQlcgx0Z/2L1UyqDA6iC6rAlBVufbhsdWmWFvh489LYV7hP4Z8g2vlnenCb/WMeIKCFCsNa9uTNeK0qgcE361+9/a38YhJEZ9bF3Z2IIHjsiveQsUFi4P/SiJnxdsDMDWsph31Nq8g9vPSCEQaYj57OIlWQCCOvnUEwPA/dVPRMqhzoKVurZXbAhEeCsF3VveWQoaWrin9b29Mz4viCxmdr4IbRj2LEG+ZwOJJcE80UWTCeWO2cf4HHGalF59K4XLdgV4rdpLsDtumseis0vxINLt5nbV73LDy+8cem06pdTX+nfZQ6eKM35PVqPSxrSw1f2nOQ2y2qV/CeidSqZKt5jRTchGXcXxqDsKB4SHSXKQGxOuEVCXZkmNVP5YNuZyzhe4FDEcxYlFoAJBn2pyXwOVtfk7Ke0GgK5Ag6lPKnSrcy0QauvT3T7jK7nWxL6+aQN3JLZDKBbMSSoo4BgqOsl7xpkHjZWQl7yiwq56izGffJgb46Nf2s4psXj6cT57mcb1yP6+yW1IVprsTBIIdnT/8Q3UekPmzTarbO24vYmXIDletXCkK+7GIWmhsjKVy7N6MRmrOC5xpa8/eGULMFJNpYus96HMU8B+p4T2GJcgrZngdkJoZvHQTs2FYUo5t2gantZ2f5KdOCwR+oHICmkWOkrEGiIr1eGrfzO5bHiZ9Mg/sz9V3yNrquzS+Fn6TjOlydU5KiBUTGL8ZvMBLNSWRIqoWiK7UKmBHKXgxy30aBqc49paiSejcZLSS/tdPUtwfK+zaYNo9Tx7+ZNvD9byDJX6Wjw5OyZTR2FEcJmf8QjjnWBNeifaVOLLjZfF6TitendhaCyvyzFzi3THEzNjmvE7v4TG7Q/G7S5b8sp8XG9DkSkVHi7QNwnCy/EsoIOhh8AN4OuxB5eMTImEQrgbdkVuqtmSkDBDqSQbtq7NhP1etC+HHa7BL8N0cE3lt27Fgx7HKt6mriU1Ybl22XojDSl1rU7DV6oSKo14fgDp5kHfd67h8iZbm8HUygVmKWVsNLBpzcsrFreudTLsgyIl7z0xevoIet9u0cR0rZ/ztvpjcqTBz/xvx3npjW/Uqn/dCPRTqV23NG5xWvOYpvbaH7LPEqb0ZhWkOuWYMsRNlJiTSOKc3VFN1GTUFwj3VabNWt03D5RGw+INPNJxQjD67oPjYOvJNiFIBlJkYwIKWDghupkKUubc1O6mxC+pliHNh6bEK/Iaz3saOY/clmX4zyn6UXbdoyM37IMOA+J5q5YHdTu0WTiDVLSFI+8/CqGKGtowHgXjhGUfRYfktpZsk9PakKXhxJsxZHnf6mD0xaCq+tBtw9RcKHBKbP5JZAfhjESlCm7p72i0fQ5j69ckZOrArBJfyqAwyw0CtEbdbPnqTUFL5pgYa9TQc0UtBRbEhhgMShOZkP2VeGD9RhulBkqUmkVzcvVGMd47Zq41JH1QVRlfE+mWWphF+yTAnM/njqXZzcqhFZsWE3nkLMX6rz74rXVRSJ2ZJKEHhLBAv4P8509O4ubyRId53lgKk2sfdjDbf9smijcFWZ1zOkQAsBYTFU+ljOmFmFOBtkWQaM7tO06oISagZHHCTQSeXATa9O9wc/5K+xNKxqBMdw9rpQ1z3b/xeE0JbI2bTPFmhwDor0+8ak+q6ThNJWaHsc69Sf5bL+EPSeGYgfZ+rzjy29X2hapJ93FxUYstDbrvjOdQZqLhCvouzvxf0eb39qIdJeUWsX9UAoN1w+ouw4TVyP/snoyHWw0X1zqMbXKjD4uBiKah4ST+l7Du7M3NV2rITOPCgBZNUIIaBLQhNwbFagbdnVG5H2/bKtor56HNXvPCYbGZizWPyNyYf5kQjQyDAgzPR2eysR174GL5EzfTly39Zyh+E1anlQ67N6OScsoUKV2KXRWhTsizTFb75OqihrTLZ30+hr6yiyC98TwLfd1ZUTtL8J8+I2Px+zN1a/2YqA+ojd3kRTF/JMRA3QxFPNBTIA1VbcV3zUXYCBKDjOfXFoXMXkCLEuSpW9eBsPI1u2buK0yUUZZbzzTCtBh1YoWQ9xV9KMTYPqIwxvm/LzR4albjnq53Ic5HAmLs1pD3gLSk7a9Pyr+3b4RWGA1Y06nLal+Z6Dc9EJJ+RxfUy5EVfr1cKjfXS0uHSVEmN0X9h6Z6bpKfagClDTvk2FhvzqjaGJFuuY6rsVuXe7QtSp8QCrqJ59SBYz3OJOuKkU7hRNpQ1hHnuys8Bpr/N8aOxwSQYaP+7HZeLWOEwmSPppJ64lCKObvW3RmgAeXqe9LGlW0j8qWGQv1ZKGBqS5CKTage/MhlaouyNDxw8/TrTxY+BwHjtsfe/e1vglgIImlNm4Q7248qAQKJI9abvdpRERxs9HQiRSlE+/bVKNrea0R5NpRmFdCOj+sdyXwfL357lta0lorBW6J37TW/iNYa9JwC8CMH3G3vEVLmcQseSixQGh/wDyIEI7uAGt9/swA0T73G0OnhypRXZn/YCsAGP2YTOpAcbzOErhjaGxxdpQB1gOEFGMMDNKJO33Qh3AN7Sd9kSIY9PCvaVM/GCT7rWn4XbkLAivu7r9yrG95w2cbSbs4YgsIzaARJj7gNWjtYJBTt0QmgfjZtI/HHxX12NeCLBRdyHg+OS6V+9bwYhBhjrqeVa/jypFodAPVFpUqwlBRf7tHyusO2PZqGxHYjLt3s+7G5n3enIOaa6o14nZq6VYKQbNhGRYW7XFcumQzmBAUKiTwGQNRw+815G/bhRYfZqelQ5TErrwXbz/Gb6sc1IWwKAL1IaQIyCeb53tUh3WojZw4TqVg0veHMihUPFa10FpNfiZs72Ljsnhs76LI8CPi/c6oUD5tZzmmp7V2FUXbSR0YGO+1cxhmBDaEulDi6WuervrFoo/casnzFMCkdDN16u1mNF/T8HZ+EsUJSrIzyjzAnDU3+H8ktv1ynjsNj49mvafe9JVzNXU7o/EjQ3oG6wkY3DfPu4DKkoN2/PciqiUkVK4r8AnTigIIPgbpr9aPzVBlTedHe4VdsvI8JqoMAsb5dasEqpHvSJb1M1hbzwl3nwITW2SlfRtYPQUariyP+RtQUsGNqTjsQivnL9g02TXO0CvW1DtAI7ZpdUHzUulE1HJWXu2ZR2tBviNMNUQ2EC03BTYjCqUVMs3EDH8jybI1cnWMVFAV8XDlJfIbcCyID4vo9Zk09s/JhyGSL2YKxoRslMUlqIMDV4BGsS9m7gADbXEPDsj4ZRkFtoYPW2qt72Jg9DppZLHPlSkK9/NvSfhqzCDDU8FcSauwvz02iXPpIxQoFmpBVeFQFZ3qTgKzWJa5kGbz+PDp3yPQxai21r2ZbCYST2hmzagJ608t4gAJShgWXkquPqFXSir49E3rBEPF3x5nLjBhgwB/p0XGGeYYi67D08RFsZxoxMcyybgi4F5Oc3pATBt21lcURjtzY7opPyuE4uUo4rPjnsCOLwzBlyYRgoOlz/vODhvpy6arcIXXbkBGX9i408GlJTODJsUJSusDfXM1IwThO6uPTV594dyxghpSf43xeBrPK38ce5bUJSQEZVHbFZihgz70s0DSm9rBLfStfHBOxkY9nijqzrJnjbGCq58K0rBsQ6O2xtXYp0utdYLWT5t0sP9lUMeqmEdy1d3oDk10GBiPiKaDk9NnG/VKsJF9VmZz8x5YxRvwCzAdMUwc4VlKZkb5PyxjFXXrX4TFGsXSmqXKe9FEIRkBxJUK24u3EElaL/iIem5evi5DwVgoxqgpoinPV48DVeqDiC4IYF7Y0QQ9ylJ3h8ZBjJrT41/Y97Zfx4R2Pdo2V7s/FpyWiyfqUGdcH4sI8ZrZVby7kIBeBn96kZkRk68CWqh709U5WHhjjwUuiMth/lpPw60nULC5YJNu3KGbovBJq6r0WVyNIUSbZqrC3MbGq8SQQ2fhX40TnjULqLhDDieajLnD5PqI0RNoUsSDCMMhxl2wEo2q2C8iouC8woR8Ns/cQ8bo6Scv2MuVX4j3WTh4LWVWhe5UtZNwctXMkOolfs5wOK6aMbT3y0Y+jHhNIuppTIOTd/IRxtWgKPTB97l8Vq5AXc97cPbDi/p7g6pmuaKVRdMOFE1Er9u9dXY1COLXbeLL7bnk73agJ8mLtLLUXYVDCLJH7Y8t7TDCvBZgWauNytknBKRMBNWiMpYrZOdQDgM7Ou3FCrhBxbHnfDfGzyKFPmgiHHpjjtX7FbrLowfbvAPT+HomRhU43/ZqSiKF7O6DLHwtupjeDff9u+76Dj2Kruwsguy0zLYVbUUMBahzjWH4aw3rsL83x0XlDty0nki4kxK/bHUVwCD4yRBxcacuvZ6sZ5A9niaTV+G6PCzbtf/5IRK/WYkEm+6YBMlQnwpq/6qGoE59/zrklSUcR2d+axuc+mY/cy6NicpzErrHXpEXJthSEy+etuCzdCA+BwhtTjQ4xzAIQ2QfFIJJ0awr+kjXD8U5cd4NUsT2Jn1ZR6AvMY3NzGXglEuMwhAGmoGSrmZzqsNafIlp68qr/V+Gx933afC7juDeDhnYa1Y+BqeRw+eDDTa4mmaC4+RGKRYRi4iYmqnRh1Mzl9VNsyFQYT/phuflNeFpWiVmh3JHBROEE5E/AVawdcOzIhWTlGrnSrPbSp9U3/WvM2VgfAl9OZv0pV3Uq0a7JAEDbM7V5VcF9724oMLX8Kw/JiKMK5ht+RHDxxT8YgAVfXca5B292D3P2isq9+5TCVbCqsN5YmiesWeQZ7tJKxzwMl1IjM2nDrW8DcT8Hij31tjqD8uXD6REUtjktDXQKGnbPHH3QOuqnb6Ru6KYeWXoMRZu7vWlybuTo3+I9Kn9uG49mzbIabyN6/rrZtGgRtDfDSa8bMTozRYptxBkcmqtLhIGRD8G/4XbWEDctFKEvTGF0SkQxvmbqlUCTLxOtZxSI+J5biVLAMCVTYc3mrh19UQj4hN45LYCJ8bmDjqo1guzUoboiwMhysU1sqdfmt9TfUrJLlSbDgBsccIyjedE9iTC6Rok10RRYrL9PeydwZ8VEd51SW4Lm6vT69uGnELLIYd0sJSBdkiYvn7C//m95+7gC+/Ya5JWjt8VGU1tfrPQOQwkhvJB1oT0MIkgKSD6I+EySoriBt0yXQRZi+YSbPJnMzGXmEIzQvMUPIgf5CbXjakUV2ASUEc8oIUe8wRKJ/J67VdFFIqXt/Hhv40Kx0XA8XtsQI8KGniktEzi6hw4BScR4OjW/uiOtTF/tKUQsWUNb5UkolZNisVslDxPC+2JqYoBw8gQdrCOTjJU6qwt5Ik8XbRqwBZM4H6aE/o2bQxjD541G9dxJ6FUsMKYKOQLvK9P/jKeTTtrqnu+RydrFtY5ttCZYFnMeNYtacykeFtIyDW4fbL4TxAmGrY0roy4bGaccFfjJjCQ75vkkPM5/oCSE6dav14RtEMI22PlB8FBi3OFCxg440AThWqW5JFS7MiSVDVgy4tnDB63duVnaAm2HXdlm+pMvJAI+Qw9JhVBwx1DmAYcoC9qFfbDf+xod8DrAL4/Ak/CsN6wgTtBEw9NWOZzHXU9LioBm/cNfFlovEY1SWDY+EexdAuNpNulW3ckKiGEGLvJfKZuxcp0TyvYTcLZ9/qgoWKOj9EMCRmdGA7CiBV2dOjyVswjzyPcR+NlNJmB6N09Ismu5pr1rxX4H7CjNx6SIr6YlvNJH23GQLV9InEHb4FAKGHDfRj2cUewkXkBV7ULtXrR8BINgftcBDq9scESZvqxeAdLBJSdvlrao0GZKhYQcIzoy+I80R+MPzC9G5JFpbMomwYgA9QjmWMSQ9yiR6tHBN/9K22mZb8ooK5TywZyAUDKuLoRPAE9VRljsmLQpncj+ZZJM8ljmJYdr4a5ys2LjQNCyyElwPdDYOc4FcYMaXpRG/PTLoAZVSS9GSibAd9csZEJJZLdFFxdVVSlz7OfHwyehZd9SaeEKAwJ+hLgtI+ZNjzVm46k4e4ewq9ZPhTzQMwLFjg2z2yv+HKa49NeN2f8dCeAdSfxztJ8xnZRV1PB8rAaVfRHvIO6z+aoMGygArpgrR9JOklsHRPKHf3S7u4fzdWgoMfpeABWtiGtrKTKu2NRWjpEwuD8H/Nu8U4AaVfb7oNxwpqOUT18e7d/gJfF8NHp3qroge3/j6g55c05C3EZyFAH5xuRtf9ze4/jFOF4NL08l0uKvxSEFd7g8zIMy8ph4FTh9LGrg7Tg9WZAOGxz9ZRMkfmQIgbw1grUEZvg2930qDEv9cxnyIkyb3LIQbiox7XMJyEVcPKVA89ueY82vfYec44sxwH6gk5ik6kMIWHvPs38mqSk2au7XZJs+3cVd9L7/iEQd+rN6LsW853LEWwZLE3zZUTOsL8xmV1stTRu1BjxcxX43F+zrzKxDZhZ7njb22v37XGxq2Ym+WFd037UksGnYqVU+yTihNFIg/baS7fm0UHucSCedK9bTD6WXolfZ2+omoBfppaA2DCusmBfviaJAm7eIQBecOrCMp5lriSN0AsIOGh9esuQltl+aRVfXCWIvYJBDutDgRPqGWptwDLfZ6Kzh3al2f4FbaL7RgsHDNqux+oMFWr58nMw5ZY91pMkHMOOvOBdbidFy8xfgBztCO+L94uCp3cVjG2eabn2lzH2UhimNGuABF16n8a3CgHDgVvTzeXd7z+psEBhcklThK+1voFXsUkasoxHp9rxvV+2H8UzEmNLnP96Cc+U5LNgGUWUI6B+VeHgwngOY34YynPVdnfOJ1QEO5SMhYcfFs7fbOP+SQYTNByaTbr01GyJl2WD3ta/7o6XZFmkmMKjKo3bbU0PGj+EE1Mfd/Ct9ZWZS6stUcoSACk/QGAbFWLnDb94BHat+xMybXgRaox5gWArKPr2sqnEf18MKhXod0tyHdNGgBXzgW0kzHIpLM96GXs11XzTorD967pv8X7B4OVQyOuiS2HTXMl7/FPG74L/nVFDu0R5gpH5SSzmwkouZg1CP+t8Dx8bNbdpdZvGwYOwgbYWfuh0UL327/dT7zWJWaO3GQDAvyzuzcaBWnaHEui85jstgboeOD1Um0Uhhgq4gi1cyMi8whr1vnpMI6k2hsP7agSl1VywnmyHGp9D67cRqe1h7z/6bvp5ajP2R79R4LH3t4OgCLIiZypM9ohCDz2vhKC/P4oq+UrNA9MJA1l/MomHsRf9KjRJMlFifQMiDZPwd5pDgEqpncSOkogG9L7gaH1qgwaR5UGJgRtXOfA967Rn10BFswd+wnZdB7WbArjLO7LHYnGXImroTcJ8KB+H9mpGheecrEb/pUFHXwSJeY3+PVuw4h7gRW4p+hQQ+8XbaKSprcjS9RiY6RNqnIyP7POZFtoezQmZ5ZTKf4ZHaMgMiahtNeTzKpzNs6pPU3+4NrVKqjfu2abGUsHAE6UgIObY7DaEqI/m6NloGpCX2k6TPwRz/WABtF+A6kqabx3Ut1gEm9K+bSsL8wfg8iEbywM2ZWlJxb+NAEYob9P3ZjWgSR3AUxQSVknGRondVvkrNUUxYpc6mJsUVb1Sz2JkCa7Dl0uwIn/Tzi46BwKaWkwp8Pivd29Z0Z7S/07zIIKA5fmjh9DFnXZkAzLw6StDOogALkb7sDN2MbF89ISKQr4zqv3a/urGyPIKKx/NiCQNk88Alpc/CZATDu7CpVt8zYMMmM7hfmAuDSY4b2QnbQ85nPDBSm/oSh6x4YCVFaHs854Cd/eSTGVuMp74Ry1eGNpEYAMsNdmJCQbV0994qGQLhmNetDlo2apLLzfKf9P88EDNL06RKbYWvZDCw9D5M+uFNbmP6REVcGZfWjN6V30CF/rhRfF7bsvOzjXLezJ/8RWPAA8ZaBKCBgghO+tXNODEnQnKWeQUyREJKp8ucKXWidKeru9W6TehNy0C5dtkEJl6gxnnLidoDkktbyTsm+/R0r/vQCSWssaiGSVNS6nsxaeTC6BLLNVenz0FfxwVZDk5JX4cWbTKPWjwCC3GGV42DRt4x9SrKhsiX0kHJ/1HiAOsEiMvw3XFpAnMAvS6zlw+IZNh9HZKWvIDIXxzb7FvsSoRm7IYuMn6KavimXiNL/QDNduz4fscHgaJnoqR9mOPXADmsUgBKlZ5I1mteF+/x2g3i6WSXLUR1js+Z4iFe9sJuzoRm+Umi5G1xN0Y6Unikxlglxh1KyF87/J2aThy3K7bNbj3a/sHbO14BrAOm39E5975cNRrUJZz6m8JOvTudZCUAgmIklh2XPyGEnDCXlYTo/b0clwF0Iwc+3pzuZ0WPz5+p0D+lzrI+BfOHKV9fAKaxo95nB0UMjoms746KRFCk1qIX0L1ykClWobwA2ahn8IJ/1k3DyfWDWlKd0eh/j9w0FzzUJAPnBSjuHFkqEVkTNVpGlvS8L7XXnMRrBz5nOFaJIXcyCPFV+0XLYzjT2GNJRDZJG2B7/KQ2v/oFavCwAlCu3Ojtgs+4xSqIgJxpz2KKGyFKOwHQuMXvlFcjk0PqnDX1txn7JlD5ma5Md9XXqKrEN1SDu7RRP/XaB+qasoiMX9B1k/uu/8ZW9YYQoJuh6vDPpVzxrSDteT0MvaMwGRLCnGxqEDU9VtxOztr30mC2QywX+o22/PQw1fRosTr1igLeQyhLfJMNTBzHaAVbgSCjcfXdwyReT+l3SssYUL/ImzclALELrwD74EqGuOa628t+i/bTdhWirm8/8NLemAsXBNrjo0C1xm1qftZSkxK5UxBPzITK22MFtPMF9DIywC+soFmBeuulIWbYs7WLDIOMKnTy3nVdZg1+v/Lr2vCm1WkcowWMo4CDQvl8AFGFh/1RaoH7qXMLyIGXBTHVSo55zu1ZgYeW8IjbEIOIO8QK1qzotLe8arrM94QUpK2TM++OkFkWayv6+qUuE02+qyAoZUdUm3maClKA+CkYNKJ+7btaIYuUVmx8x8L5whj4KjS668BOqWoTDT78SAm3+lBI/0O9+3sJEqcJcft3dRJscqHqpTlynR86KbyXsGJXEw7TCXkRIvoYPjaGEfyvUWJURFJkGJlsNqJbixfOkY8JNd7IsJar27imGDhGLtaiCeIMJzVbQDEgfkD3DXNRtD/wF007Gvl5QFtr0MJOXbW5ACDGeZOiSLpKJRr8RvGL/m/+b70CjtLpdSB5KDnzojMROZVrEHyEHdenxHZyuxo7L4cwt+xUeKnGrj89BGCoOCHUBG6Nc2ZM9h8yAcWSZwjJ/tpR7Wbc1q6BlDovm/u3oa5NOm1Sc/nTBAgWnA234eH+F3v6B+yZRQ3Bua9uGYpjYeSM0GzqocEhaAX2wTOFNy7U3iY+JowVeXVkVknRQlCD2SytNtWYQMY5E6N1Zs1swT4dWsi8FwNwBeiw4tJ9Iq1TIZzMRt7rPx2vHe3jw26kpwIOxKwq1ScBIKwuQNXnLdTsdWITZUVVmmgy+2UzmnBNDnF3DgupJZghcsImRe9H6UHjNSToktXBFnAifFDrFEZ5o/TX6TJvadK83jeFpncpkdKgj8ZD8/9l0W3Kj9hRa38+6ORvDaHtNL3Rc2GTg+wQFi1Gp2d2juu7yd9aHkZBtiGDCuvaX30hT0Y7xd4140U1N+/3yJU05JqXqza1bd5ajD7oh4WFYEs/bhYsYQuKaVLuAJ7aL4vjEVeM2LxkHKoGe6PjERhhSj1Zr/SiJkiixh1bjm3wn7dES+RsrX4PuHMIxzU0xDPRwhaIceU3gZkTP4Jbmj1SO+/CWusOpZnwxxwsqa7Z4EhJj5udItPlLuohCAZ2dEk/5U0IivJyw9PXrwc5hZzeG2jbu6tArDOZl633Vkcl8Kx3FBM3gTgWILJzkxruiLXZkr8jc/1e3aXLCbBtJ0EqiNq1K7x52c/G2rOyrpJAdyhmanqyLpj4fGU7h6BXK1UkRAEBQp3FV7ZE58YdboD6K2UKtU4U7xibIDBLpJK7guMCWT9lgO20Mi7fKgaF0tNz79ZBhpCjPC0jbvmQ2W0Y7bdSnHGaOgvo4FqZ1iuYFsreSBgF9Zxb2Y6CQN3kQhsaHJbMHGJj4PQQtbaPrdrgDZA5tux0EzGOW6NdN91GqPdBw4nU+4QG/9WPBIuiNwjvK9HIq98OP3S00ImGJ+iOPL03YsuUFhFKFQqXx9pRoqRdKPi9IrcsJNNIh+Q7zL7lUTFqRr1fQkuy8ihJkvJUf44GesajR8SXrApXaU/fem7gf0LFZDwFkZ3i8oRkXfWipPJdB6Ns7ct3DTUGY4yiQYk7h7TWBuv6hx2hVB5BhcRCvNRNWSmbS39N5Wk17Afvgars6U/NtaxTvG43uEdd7D5GXAQ+5PIv3eYbZc/nNxc0Khd9Tof/T5xQjLKXwywd95Vfht2JECdAn/ezeqheLADVnI4TmMjO7++bAljm9dHA/aSjLbz/au7h84u6KMooc5U9j2bJ5hQCM+wR6XYRrRB4LR7iinGQnJOoQlxVrBYSafTXbR1NLBmE1S+jsKVUG141mKZlziSDoJAeTG/3JaxK4tL43czw9J3PAuZ/jli7u9HZHoldKqQo+eCv1oe5rFhvx1S6h23/KCbz/+2vCVBel6I+hmSEYqEjtiTCNpZR58abR+xUd8UPTFiZKyo8gYOvEiRYFbOazXnzyA8MDyB7B29caw7GrGhOyQMS5kBl8q7Jepkg+r2fkzZdNuJ8UIVxAffLFIYpi9ZbmayfYYD1IzXAJ41l5/y2qlkSZR7rRnHfMpZwMsvelgFdLTk8DsJQQRo3zkSLnpg2ruLVRD88Qsg7DDrkBkdGREugPKCbkJUdMqU66nREjk0zvrX9kCZKN4Ef20mQKJTsMl4DoiMl0bSDnlBut9z6gid5/6yyV6sfoCSspwATq9httjdaeV9sXZx9VFZ0yMfolstODVKdKXWD9DsQbcwdxyKGEajCA/Tii+Ha6HQ/Th9GdzkuDppb9gh81ye+ohFM5lgIQAgsIeifZjl5APA4OarFlM9YYku9Jl0QKHtAHpS4perVmO4vj1jGBT3uduDDWHXyCHUzl4kCfhkgPJ71+6hKooMKo21H1sUVxbtMOtJPmBkAbRdWxWboH9M2XtahaQ1hnNEZGymwYFg+jFsZOzm3bZohwtjedf0mX+SUdmgdk6u0JC13bXfg/e6mAcNphr7id9XSq8J6DYr6xnr9NT786aPoLid9BifW7pvCpS/Z4TGCfNZ64VCYADyLXr2ToKH6xyESWrCh+cV5++XbiT6tvS9nfBFd2ABujHc9D5ChgflkGRm+4MQ2lmFIEovyjydeisvNYv5Utv2rf4uOqTbcAC8omJXcvuQjgupGvPpL0XI4b9ZiIF8hjgDxLHkY9AIXS5MAsdGUJE3C32KI2lGB6Ffq2eDu8eiM5YLR3AgSjIuBk7CMjlwq/rXJvzlarhwx1keYMUdY6vedCNcZY/r1ePCe0J+Q739oHPxfTVosFhawSszCDv5y8Z3oi9x5WOWKkgfdYvWo+t4MPcCQLCLh4ZPztBDEwRG4UN2dCh7dOMHSBhGEt1aKxC8bKpJxD4BdxZHAfMxTR0g2hadbgtnvnQPJVKk4gFqjdk6w+/HDa0aYdjUfVj6Dv4ZnO3d/0c7JnhuTzTWgnTf+rERxEDnOFWSfzZbSS/42MLKnh8jJCfeGOyRw+PCKUXYt2wfZNmGeZv68YZwsij4FvYh2/AV3GX7ITEP1x36JzkMfi5KrF3pix45qMzBwwqVPyN8VPETUYxyjGXvN0xg9jaOse4CR7Tvfva1O3JZHfQwD5Z4pEQbxdoVfpIIzGqhe/MXJakRXNEw8ETNoI444onO859cPOyDF89KQ3XwbZXpF6SDUnox8vbYK5iVdSSm2+WA3kU4UZ3XV8z/59ZYMTohX1/y9wxvP82G7CJNYZWk8ihhZVncV3fPyGToxpuq13uedtvLdxbYhkmYs7Q5jf8aR8aNzP0Ao8kcXlSu+v3Aml6Tp5mg7+dwPn7G/M+KtBKlA4Uo9Qyc2HjZGIojsMR/MtlTIp27lnwbhohHVLpcFB/fCEmdbKVm5L/nO9X7x2a9XOKMeeww4PjRa5HAXKMpK1UfDu34J7Hr4J8/kNQ5SIjSXtgR1lKJ8zEtcMFOw5rUCqSdVM4LxxCTYqzLmlUfTFYgAff+n778wleP6qLqYFP2UHOTRWmKeKi7L2Qu9+zywT9tKa+51HlpclW/YpkfI3K5QtvGqqTffMkLQC2WziXsfopr9dKXwmJjVIyjf0B7t+Z/h+SE3HsLQ3X/0pAd9G/Bv/h6xMPYjm6zm3n8OK3lmAgiQTykEInk++gwrD7w7qEO77qpsNO0yn4daQ6eps+aNWX984k2IdU6u6x+tVQQYZfo7d83vqnCN4UGK4A4MFsPAr5HyqnovLFrj+tWqhN9+ZSqF0mQ4mpFMO8pAmEz9eXCg3i8UIZSVwCFO7qE+ObhHxlvnvvDpa3gcu87FTSirQR3Kny2KxPV0FbBguAooLM+76OVZ3wpea03N5dg4HCJ+4cTQLGMiQR8a/Q6RaRff8VLQ4/qLwChzkr2WSoQqIGOJX9Qog7A5BKHUz6oYb7b8gjIMTwglOE5nb0c3D26akdeDSIuzDtQJx9bL4B9vGJow26Yc2V6MtWm8VW/gUfB3GJv9G9YYx+9A236tRGRETfWkX+j56IzsyZRbXpMjV87bDHm5bqex/RHkE4gIC25Bi+wl3fD4XMNd7nnjbuH5M8fO2Ac5pTtMEAF25lk0Ap5ZSFxZj+iaYaDT16cEXTYyzx7bLV+1vSF9XgvwPBOY/n7e93r232C/mGefnpIZSa2KfKgoWqXPnT5xi6Eeug7gRsajZaK3C7/h2cGCnwFnDrPBJGH+NgV+AVkfP9pPRGML3eL+BIGLVlyfeQHbSjiCXlAGaQ14hCgurap07udcRNyZu/NGk0UWcs8dpiJFWfa0oyn02X/T6G8RyifXT95sH67fPiLEf9cv8X2+AdhF+0kRoP+W7RosVCwdPDgCAVghGMJSxxRfanzt1nqSEOwDUYg035lf6Pz32Wnb3GXxor+4pAERKM/fqQ1py4YLg/s10Ku1YoG51MXYJNIfRh3puM9KV8AQe7vfg2sPbzoweAeiCXGgkODtFP45vQ4a2iDkdB/b1RdSAR1HCmPwA25y9DqtmM+i174GGkT9nfV82Me/I3Yy982uyUks6SXs2FmnIVBpmD68uCJfHQ8GFCKCyEmp9W7Kj11DTFZ7syf7+z6GDEBGHVeumuiTl0E1VLztTEPM27ua6SgtqPOdTHUy0/lGLUteIH6ENSFnBpdDb4+9G16AeYC/dl5Q9Z7FKjOw6kHECxzg6Ik4/ktH5R9yg5p/Cw/FYQJz9zCVV8EfiH+m6Cg1aGSSKwqKMN8UC233L7RnCGUooZQepC4kXpSyvgizckYWn/4lVehr+abReg5y2ldj6vTUyS1h4HhevV9mhHWY9RyC2O4+L+pfN/HaEjx/CFPVhFceXQC9OyNXYZ/bHB0MURPmUuV+JkTNyg4fhNX6GdgYzhYk6CUBJXXyl32YMNW6Yseu/AhJ7JR7orwBK5n8TDfryHTdt6nwrE0TlVgddYQ+N9tIORWg6GrJH795+WbJKQt4abcF56V9ghjW2iIxxwaB1+Rr9s7BYy21c6rrr5iO4A5pZIsAkA6BdMEKEG0K/zHdNgaTw6UyLJn9UfqV6jDStetrPOxA+Wj+HD40yif/1xzXmpM7Msh4xTYYaA6EiuFlsttnnBBGkNwByvP3BBTyvGethysXCNdpoIM16WxN0ixGSyMwjKa2rsfORPCGGIsK5JWMlmd8RyELY57KK3EiasWYw4054AF+N8Zf6AaP6lnsEiWSYc0eChZhAnbZ2OohVgUMVavIwZdXKwqbpvNa4o2ejy52gAQ82N0PDvK+U8OUR8C97Evh7yezY2h/MtwpKP5kLrtQvPkK3hyJQx7WS9Gx0+VBERyyMwLRRh0JIH4K8NI8H1Mn4+80ld6EvBNYeTdl2I1XgGLkIHFEGEACg44BegiN7a9HS5c+bsPOJnl4Nkn7/aSnGER83TDr/VZRP60IlCdgv62Qspv+f9O3kTBKUIB3nsgkCitLAoPpzi+If+SbUBTpGjwc/HpMRIZZsyODFtzzbuPHMej4n1+Gm7RYXBJCH313tr+Bn+Vn813yjBngeA1hUt5leucfr64RArhB8RDJpiCqtvExRbURO9WkUwtvg1ouw6ipqv2Unqpn/6NHFcbOhK0BjdBWCVEIctOuQAcsh38eNBzmtBpt+TKKEPUSj43jnKbPnoOtuZ9/IMnzeeNLvBK52ZlB6Ut8Qawy6Sc3cnyOdNe9o5D0uxweHGtUNBB7+26ACHjOw9oAlmfQHPEGHvub9b3HuDVywtMX4v1QWjX0cYR2qTdgcT8slt8srgwP+EzuC+/S7aKV84Slmf0g1PszLO373FF3vFJgytywTouZQqY4BFJuezJ6xBRvwEHDLVdi8cuNzn5N7Dqqm/g+D8Tw99FoKipO6epaFcPbPOJMiLMqNZVH5UjGEGrrQhpL4bluM4Cd7hVGoD1vryCAEj7+8vSJMzd6nkFk43r57gKYAKynsaut4/DOlnKxxzGEoisofhWRFMbZoR4V10vzc3o+JQpmxLV0BoxcdrbpDzDhZU+QI31QmBRjN8oDxHTywqLysfFXILT2ph6Xn27yyiPxBFPzEJf4rTkujYcb9i0EA4Rp4xB61z55h72+7oSEnVs4AutquXJzULtPC267T4/kNQWEjVMAYAAG7pkNWj0E/U8Kzd25vyaFAMWn9lQDxvYnx40UFaifjMkRVCVl+ltEw9jvjQZySKn+VfJhYV0bJLP5/ujBBc/oq+TnC3xCVIhEmc9BW3hGNGMUQ8i3ycguu2becUmTGwUTPMUAGwp/nvpIkOlH+BJfzFR3B5OdgJnbr4S72IaqA90ot+CtZLv9SG7CQth26arb/3jjJFrkJRQkePbYCTwZjlE0NdCZA2p9CmzMjM/l8G4wm/iLZlVCf+zlzAhvuluB7k88I7l130JDs238dpY5BMIxk6wtkeh0NfDfud9XhnbFDCsAtbNy/UaIdmHi1q3QiOYSjJxl7yMpP1Ncz2kqdtDo2+UDCFIS/NdEDDJNiS5rQamlc1c++km6jfe4rQqCM6VF22cpYWrqe3UR7YhsB1IzLOdMJ+JVMhtVqoHb/CA6YLpexWYRhKPW/6MOK7T0Cq7yhLxaBgah0o8CBelyJT8soJ9Yv3efBQlXi7lfIWuv6lGDXWhDWYnlDm8vBunMP+TpiT9b3ERvn8nfAT0oi5Nx+5b/Ynf71wxH0CbGvCTXiFazCDjTJ8psWm2gfY13LzltdBIQrjKqd5IsyeHboNaN4Cdjimcuq/QrCMZ52iPqe5Q0BVlcDJ5dmBNWUGt7mqQcd+Jixgn4x097kst3bAQ7XV3nPw0sPACyaZF3iIViEu3ECtzuORikiQayGqTRgQ/BBaUkxGVRivPsmcqYgPoTqoNKxod1XHzmuo0P7ISfOHLyHzYlIT+vDMK6Zhl9IifGSeRmvgraL3vEt6zjT6jFgEsa3Ab2GL7UB14CzwWFe94ZhMX98+iC0vWcIv6ebA4/0uTg3AnAReOddJvnKvyBIaWUWqpnY7bope4MU3nFdfknI70Rz+VuHALL8xeLTpGw913O14rDBbMNoU9LwRg3217jmBvqVFgHh5AwVr5fMr+aSRgRA5CxuppqnhlQRdVIEsoa1/3P+oGUA70XQdKRLOkv2tYkJXOxB02Qp8/dewzMovf5f2VbJ186J7brXajlpXYBNybNluMRHnyaNJt5b3iT0EjP9wYIy0Tv/sKZWIkM5Yf3VTi/bncWXWb3gOL149kV4FzqZZF029rhQIl8yIaNz2lNmudDMHutmEDvo3LphBR4C7x5RQiPN9SYSmtw3RkCF0l12/1T7ECxKYLKzYLffX9Fq9jvCmtw5H+2DlUaLcOWp3x/k0O6dBP0SmRLPozmWUGq4rj/VHOiXCucMPS+wRNgX2HSdRGTvdhfZwk7UewdfqJ+OoWBkctNxdUgDOahghO3u4g8pNpD6t7MN2TqsMmDBeqR2P3DW2bcfSgSMkrqjDFWZMJuCQH+lYly4jAxwr5PEzAP82q+1L/QKp1UfmgwSmk8dWUczIDxLrsvxeNKyg6lFTmPqCNjm6l9qno/Px2RYpEn0Vr804+vH9L/XZdNO3ZLBUOjkoIpgiAanvLKXWvfIiXq6S/oWHPYk70moJhJaDRLaPtSDHuwPcwiNA/idq7fwTiNoPE5l/urh1sKcrLK2GBPg6lXOzGRt5tp9Z4YTmCFlbKATuhkfokFH1kbmrw17gLZYTU8s44lyqIwD9R1qMmkG6/+I5eEOxkSTSQ/+z+yLBcjIxIhkrQbBQmVqjmwWiO2Qu0JIMoZgy05HM8MAnCn0/po5MKW/pnNMhfS7J4SEtlzZH4sZerWQDTizY8/ldgN7t4caNzRuQQlVaSXULnSVAqr/OBIefJOZzJ2PNyr6YFT3vHa0R5MwTCzCuvb1cyUsEUcRmaVPNWxdm1OGyjQtQ8/RDCB3BYAPmH3Q4ppI+ebYsKo+3bBpCyzWgSQzoIND/ubkrqHyNcye1SLDbNXnVJpwf1FYp4l/65DYME6GYPH/6a0brRevHdgF1mMkZAULWrYZYfit4K6HXv6x4JUAGqX7wLaXBykGmobxMOJg7JXADAKn5CP7/uEMAtGtt/2EK/zqLQpE/oVr5emdF4emvAUvOjJ1fQQNXKe9C90cGDsqyyAjmHEcMbfGMDCJJQmv5DcpAx2cDkjzfGqRH3DLs4ItAqDshWuozboeKX5bEVwY+SrgzBPa5b/Oh5TC1y+2Djwpz+OI6uQGYyk08EinPmazvOj4DKtSYY4kqRFzjsblg7S2iAG61GaClR/0xxpcjJ7/t04l63dan/W5NUtLO28O7MyiLwlG6CnzS4l7MRmAM7NQDkjR2D2gnenIFgpV0tZpzwKLrDREvwRAs8URMpG22B9pkmOowkFZqDCMiybd66e2OGEswNuw6n6XlNKWunNI3jWVWz18M1pAFBcSczJVst0qFIxKOIJE+AfuVx79779gyY2nwL4FoDUUpsske4NivPuxtVJnKJZJDqsF6GJx9Q6Go0aW3YhqT4oYxjbJtGReZi5VBuwVvDiAB/4RPch6Ke8I7Yx2w1Ljja3VFAD03fgWeregZiq4HfxDT0lftBZBPpFk0BOvbAcR7qxBPdsRd+iXW2KktCblk8ppaveRVOLbmZlcrRXPaTvzww5MYZP3D9IZD5FbdkZMw6+BpwDsUvkNLdYfSWyG1MwHko15Ng3lbctb0+XKG36F5tz0TWDAA1kMXqdmlTKqxEC3CWgQYO3ErXD/IhCrWv0RIo4rQcF5sAkDg0nVk/p4Xyf0RSPN+/KoCSrYT3FAibjAyYbgP5725OvCmPrAC80PKMNfd9mmrq3yUnSyk4PtVitvgATIa9uYnMZocsYfbrq+p2er6B2AZKFqK/L/0qYZngrMh+dO2hMYMHTRy+Pefl4xRzVic9GqTINm0y4QbAHE5WaKEvWpLmEtuXkNsaWeSOAikJ2SLUGzV22Bkok/YE1oxrWOWEDDtKiSWFIVff9pQ2tDRphvxSe6ftY0VSUOYtFiq5hOxRPSbS4h8v1Gb2bnEY/U/msfR82QdddyQHLLlXuCMLSti10oAV5zL3CfXbqP7X0OLtO5G2foJ/oHbPIiaj8/zWvnpKkMDAtWWxAdr+Uix17zd5AkEXHoJNAJBB/keu6XQzyTz4fxzvFQb1VaaVg8szyz41o6pCFFzjlt7/hT8YGlSzknu2CEHSRvS9Glr9g0sjHicAGyUuzp7bmdPp42NDInxSrjpYHcoOCXMQnQ8dBFy1JeZnsCVE/xUz3OhA7PlR8ObNlJX5jqjSwh4BdblsBimQNPqyviUpREK01mDD+0E3tuCh1HkiOKtB/cFZ//C63/BOFPPsMyUegFaTFxkT9O8K4h3s+ijBiBNoX8b7SpTSK3A5zq/U2QkKS5aq/yJmpBjHS6MTzUKBd60GtFopE+fVlNRWtEhBGXD3FAK02S7vrNiyjc3EikGTrNbq6uGotlSQCDeoJ9uaYdOnY4+4+t+iH5Gil9ukXo1deR+ViNG/YCeCUkpGmgq87rrtJd1jyHzM7UTh1E46XFg3FTzdsLNzhZVBjnJsp1lp+vWh6aGUOkQ3CuNkja8ivHctEdCcZBy0FEh9iDOKg4+ZPyGOKGaNRNM5+IFppxfgVph5T1XcV2mBW2dTg6RhkSumOhmD11elAatvWT6vYsZx2H+qSG6tD1AacTadSmH/zQVmFLPawJqcMsIdVgsj/H48soFZfs3fqw1eVxjolCE9UF9fhKV9Gn4shlBxAHbuvYISdO12mFCmdBmbNeuQDrMQc04ul3xea6D86q8DMo3ih9AImcpH71djZJIWvCQWJ6f9jO/1cri7FLrtQb9j2GUaeqIZAfiYm/ngppVOMHoiDFOJ7FXtW8V0dA7pL0FC+oq3Rn4ZLzjr+3Sv+oYYDKoKl8TD09B0bB8tIXVknVwNp/vdBuLNPjcK68j7l0YGfE/WtZpWV/2I0IH2KAesFNFyobY4wmrczG7oEydMu8X1QJ/jzObuAYDJNRZhMNKtRWMe9eQWzxJNFRO058cjzJiHyrKWWpMJECT9jdBolbjt2B6w23DBLA6hVBiKncYunx5dtYRZ/o87uRMP6tiYIrG1Wl2UtVHGO34Y4Qvdr4nkvQWNlBokC+FEhPCsxxwtyAgmpQnrHPldkxkgvDhpoSG0FFnpqfRNgzety3cfDbS1tDkMpPRiBxrAzowsuOoJkJOGS2C1TKu4XjALXuKbJlqHEivkCYM8xi4/x+8TV9jyfbZPBZz+jMMouFZLk87Zn4Yh/ENyp6Pu2XPFaculV9PitvHLYX31Axdh8K3lQhHL/n7eU1O3uFtF5NLuXmEmt/8tuZm9/eN6DFE7Yj/bOolg3BuEWDfcuBOWdbsI/ed/S9D1WroUXWYQEsA+y3pTjvyC5VRjMqJwn4paasBhZfShLAJW2cTYoDHAgGt1BxS4BtWegPe/+HwtVSC5trmJTe9qzTvDJ/Yx6Btlkbg9RBdmFv8WQr8bpXPHNfGZwjdr9eFQnL8iURkm2oMv9ZOf9UKOigzuAy80z0aGDfXGkkt2ch5s/2qdxzWVs76PBHe/H6mGUZ8mrxUdmyr9mA3rAj/TrFvQR1m9qOL2biBLVjsgsBOux2NVQUfZqerlE/cf2LTRGS46OVvxKb4DsoPqtt39FS/ulIlOYqheZgtMWCgg1R+FSyiJsky3N1MJBySuvvjbuIXC+SBSG+SV88w1AxVEMxL3iJXfEkBqy2nYhMJECxqR66+Qu2ja5wMYQcW2WzlN1xahgQwQ4RksO3+Qf+K3jpDYBVn9+A+sGR81+XxXJQPKvz1EVZpBm5fyWZo3F9yY3mtV7+xCrsj1bDEMqNLcp2cshK1clYs478vTiY6oyJ4VfhtBfSzTw0DD8BYTGE3DqtvJ7j6Y2TcxJCodhZyz8VNheJGLiyKDdjheuoO8du9UHZBJSY8JYLB0ys2ZBMTA8WL/wKmAFyhF8AQiCrf4fqdwD+Ww8FXesaLQKPuuvw5u2hZT+pYtuI/88DKO9Y5XkkrCg2UTkcGtnlHNz/pus9r6ot7bqeNm/bOeftyY3iuhkpbOqyHRqXr/fmksejS29fJTGsOTTPbpDg41Ehrph+fWUkbve/ibVXsTG8AOMkuD28FocCpVZxo79AacwgELxOsZ7x8VV/+S2j5bpHb4SkfTWuF1prB8TD8ej/7DEVqfFHngR5ZKCa0Y3LjLxmjjmOKwLE28jHz3AItRd5pNu4Yu8gEmGPaRhxF4kI3AOKpUHU90ElTE8Z9SqsvldrjEiF71D60l3R6hcp7a6tqlgaJNmq1uB2D+rt/JV8E5/NK6O7hGgiPNBGRuKztibQ7eKFhFO5KC25NuYp/dtIsCE2UAaRr0b3juTT8kBDo+XPR6jiD3ajEjgVier8hm+MLu8uCaXkEMj4URO9JedpPaz9/PjmvqDEOBl65bB3Z5dSaj8/ztloNwgGrqB1mN6pu8NEuFa+7Jit5MQfxwQZFb+mkUIzJKLsH2f67b6MkEH06qyJUFwGNXwTtEeEZ2qVBk6mEF5pwToGQY+rpaRgTJTqMRffx0JxNlNJZT37mYYbw8qH6gyyfpoNrFbmomxYEQVwqsGSHsY0MgQSuT+Nr4DBvh1KAF3CjQSm7aK2jQ8TmqiPnpg1RD4dUjtlBQmldb1Kh3cO7ahuOlzIwZ3KaZAwkzojUh5XfvFjSJfgN57hAWFn0GzUYjwxQVj8hv49mF4TpNyfrhHeW/+EY36VLd34g5Qnne11VMi4X9l7hLlB4wgRHhixGKBY25P0ROWjYZ7geaK2H0Gp0p1kvQ3wMwocVe+quOc/W2F2crxvC4gkBGDwRTbMXAesnvfldbnU69v3tnP8f/SC/3V5NVxucbDLTxx2Rj4OAZr3inmjxB9XURbmNTeIdbDqoESQLoCaM52lLsvB3F5xFrSKCfHo0OttWolDi7I6E7P3hSzaFDQwXhtAIXWX05Bq46FyXceQ+lvpSHO3f9C/DJkq0+vu2jGuAxmrBq7HKWkHrmRvd7xN2MwO56p2zDBRCjXz27vmIr/2WOZlalhyqFxSisSZN4PYUWRyJGVJZWHilyzdjGDZOcreKK1vzppe6dMUBg4vOsrYxku54w7EDRJFAlxORKjxD7gh87xKgYoa0Ggk7aB9RLLmKirMTlTbAMUO9MzuOKtFqvKigXmr6GgQZGrid9ii1M61VZCqPJ95ovCU/4UyI9XqOAVEJEIolLZ9FKl8PEPjT6bl8mle4lW3uRjqjwfrQ2+iz/ngQ60eqbeCHJHnlz8K0VdP5pG/71c7NokJGspuIelXVM7EQBrlEyHnaPGvYmbOVvupk0l2jEa3l232glbnlbWFpGtbU4ET5WXP/24jiCBXc2AxlGUO2HhMsf8AbgI+JdhMUjjxYN050+xdL2EkMwNFx9Y/mhEGbrhUfCL1Cu0/9DhPAmQlczcOJE9ADghPu+ki6RJiFlw/ym2FXTtbtV4mJuhuP/yBoJBBk8rE/jVRcfVG6x+QNRVcuYDxwrm98b7lsy7r0IjS7WF1a7JbF25VUpqf/j6ShFzzATffj0VJIGnSZZfNm/jJmQoBQDAuzk/+FGWl5yv9DHBT4LKF8uKq1RinorFITKDqzrZCgyW1DYxSypHCZOtbOURwDqkyeLaiVnI14UUJIVCWUqIDZqMrqQiBPddP7/33rGOQcRkwU1UqMuaVgWUg+5kmbVjk6IqSMw9k87yQNFtFEK5W3F0ZkoCFijnOvSubWFSIJHO8Q24wiXjqIp5Jd1TzGilovQ0UZPENJjuVbI9vo8SafOGYtG8/CQktrg0cUgLRHXUqGQhO7u0CepBX2DEZBvJVpIwOfSpPe4pDuU85cY8I3taBSVKjdabgR6Fw1fauQaWIPjyRvNSt3lB/peDAh8tjWRBo3tRlQWtvSk2Zsgi27AlkH8fl8ZTccg0EJYw1e6tl69nW7GrNmgdut3ipo+aV5PSp9bhjZJuSBOdks3nheaMczVl5sLdDA/3PxISeUlo+4qxyE2Z0oWf/2AYH0mpWAbNddFSo0eQfmD2ZFpChJaF//CUJ2jWea/gQluMd/0IjOoI3tvx6kVEp/jgeqf51OQYEsCyw8ICaUe0jZ/2tNhCfHROLENEOAwUxJZDfBgLOzY+Vs10Nzv8Jj6iEgd0VkoIRXHwzlhKzorsNAP8aYcnzLFGWYXbi0HGRD3PxVtINfxW5y/FBHq2tvZYASbhMVKKIijv2zVigzxSq+K9HNCSs13jNrJSe4ZJ6Hdqoib88wt9Orb/HtEXrt2NA3NLt8hk8PxMxuOj90NiX/BtQgXODMXKITLvQt0i9LLJRVsN5cV4SUhKM8Qt2TIhH9ZzyUFDhJ/a5RtvzBifZv5HYcxnTqKl5cUr1RgJe9YHa/nOAlNITHWjdCK4/xl2xauxQNNPkos4P1qBIdji9jF7fuiuvhXbwwmLS9PwkNy4JJdfWEP4XOzlelIijS4zwzAfQJeqGREObChITAXGzIsbVdHwDN6VtsgIsOG+UWN+Ut9HDRCl1TdyAt7AgsIFDElCIkhAE/JECrnBDXQLqSB0ZH8L0mgblw7MpGyXJNvKJp2W366rJDs3CSU+BjmtoEH8dtEwB986Ph9vefX2FRV5+ax6i3F3vzXLR32nRpzcdGL7YBUw0HU6dTg5q906NLJwpGf9CHYrIwK5w3zd8c69jDcUeEgEtgtEKL9aVUJ+KhI+3r1SU6dvLU2VzsViYEU6UvgHpY2HD5pixQTul/JBOM5pff6vfBUYRLpqWl6XxfAzcWzC5VmHlMJEkHAuAMYIc/xu/eh4D++w9RwoGFTuwR/kO2UZd7+s8VDRBeBAPyHD4TwHef/T0oT4LRyfYSGEbQIVIjJ2EemvssuwuBhfCSblr+yVGIZqAm8VNsti8vAAGKmjrRZEQP3l1tZovk1zJnuCNBRAcht7/uFqi0YL4gSH/0MyXNEgL96UsM/bhEmEbf1GwTqKW9ECpQMHWfcxMnWV78z/CbofkORF/DWTcw2ruN+oTGvC37yysS2JTG49V+PR4DJY+tZa1whsLUe4etVntTJl2z+bRipyZKD7m8I9l4bOeC5HWcXEZPIHh9g724gfta3PUFXznR3/kmiqW2HY7yFBSXz9l5Wcp4Rf3tL5p14KzVkRPlREeHJ5xVsJDJsQSy+9bgcDlGjM6dxN5Lvpu/U8YvUdSdo79tjLKpFl7N+1F9hLzNUNz5/7yn1s+oiZ6EI2FvhUDSP3bFWyJDIqtxR58TtDUd2EowNdlo9LssnSftnW0Q8t7pA2xk9JPhapSbukGpYGhP4/UhOrfqW0isswJ14yZHoTz3EfbvHrPou7X+zHux2cXaSUW/PPVNWbaHomxAL+nQjEwtcDTEN1j7WG8vODfGrzXDEaY36E103ARxH/t3SRK+I2BEEZYeQ0i+qxUrSALyRwjOkXVZdn4/xkDGP0yxEeOiXOAQoxzAnX6yZv4IfI/n210/IcGo9SN+itq5LNg6eO1zOiLK9PZNEC+Smyui4hdX8JneMsoxJnsIqFqrX+1fg325PiNqlLZCnRjEdTZZK0thCKDxmI1N5RPaM2R5biY7yW3shBiXmP+baiJOAznCm1sYQzTf74UojagOGEIFM7sVwSdb++HDIQvmsmMmat4c2aeUiJd7UlmxVsiEP/w5QTT9nm3E/hXgGFgV0x7XrTiPykM0x+DaVR/V5qexccblvSTpJ/e7b1ZsCO04m8ZqpSsOhcGGISNP/vNrawjDn1d9ZJ6aIDrBx/f27/dpjtCdq5pH9vKnkgS7hhSxCHpTOH0CekqI9HKFulju7Kq87uqemdcobgqdji5kTqzeQhjM4Yacr6cGrk4cvrwjbW9syF9f1g/zkfXU07ICmcCTxBeX+UDjws8TfAGqMQh9lYEF1yUk2CH/04DRqaI0S1/4Ou1Cwk2jwMEGwS7uAwgDXiRkaO9UNlnUdH4qFUn1G82+vVnG1Gf1VSnTFyOZfd764ZdtPUMzuP6ew1D39F+kdCgRYOCxSYYsGC31lqhDaVKM90BDMmWWtNCMrAb+XUL91H7s4jtgjJRBplLS5rgkFd0CqoX5xDmFXtuDopkmAXvKzYsAyf9X2xUdT3ODcZHLyUgPAfq+VdgM1EBPuh0JX3/jdkbRDCqAgwIG7srWeGbhKNAhi9g4SUwn6DdKpaEJAWZWrK00vzhtEft9CyXZ4M3N0k7JuHXMw0o5s+Jk3oe3UhVP0dCCwlf09KsUIiUpz1KHFpHvaAScKXvpHqafF5tYJ3XwJtbmRoL9U+xo3S89FNxYKIUzYE2yucJHmYNDI6GpeDN43mR0y4NSNpy1mfuKbmCu92MXQyZOXvuL+D11sw1T6y1Qr0JyP4wuE2JSA/rj3178WOC6omQLPiYiq9dRuiqgg1XA/pTOGlH8L/NvaKjb/8BmVLEqNfE6XMVmWfYCy7FJ9yak2xeJElphEk9OWTzK6riJcpsYA6diJNa9vZt9MXGUKe89sR06EHLqHyrgBtIABwn4HJWEtF66XGM/Wy6XeaQCVO8ujjuOraTD9EmhyqNQUNhQCNaERuuid9UVqXk4WuujoqJ/PM2K4GU9l8JX4BKvYed2Gv9dFupdEiBLy4aVUzek/BXNhgMtMWHSHlS2WnbITIlnPFlnJ9+8C9g5Tl5d3DYJQNOn7+Imt9+NYjhjnDjqWlfXgHA2TkdZcJyACLTyxMf0BABQE+pki7uwiEFCyBK0KH4ugXF6nhNyQ2Le7r3gGQ/UgwU3+m1fgtuJB/oSCOluNOra7mWDCqCp3Yg7aBX6Phy6gCUJdX9FmEhb1Et41tEsy7xOt6NzNqgCVPPJTgL36y+3YPfnJsxKzQeKzHh3AQXBoPe5V5b+hUN4KzZ62ZQheuoVfuM1mbYLUWE6mHAgv3x7pw0drDVeFHPWMQEXMmbUqEFAf+KiPdHQ+bb20pWYHevVYkT0+f2qQxHOEVzrvMmQTcRBXGjh4fAQYqpHZwslaLjFbPKMaVbXYZnuqsVKRxoz4N3gagexWT3G+l38qnQoWipLOEJIiuYeiq09+XLKcWTfjbBWqdhFoCULvrLQqWSHMUmNjcN2W8zDCq78dhPzc+bLXAjZRKtGWwLzh5paoM6xhj5JoRxlOvOIhg0y134v4TNKN8xIBNvP5Zf3wDIBtZmZZWsYyzHZpkqQ6Azyn27GVoRMQWRLZuu+mqomoC6kWAQdQV54sPPABPH0BRPn8Vb/LbYLdQo2guyAxbU1QL8HO+u1MyYT1XMEXERBExZr76JtkiftMiqe4KSqmkAzjbSJkVCuWBiOTE4yoWbk1u3hYAlHaJlztc4+HvwSHY95MAkdUZjYg/ZX6VFB5tn2A7gvVt9Wleyu08YIMFkfKCUBPN5gqubLecq8I2BKNvDLgGngHKDijh0P0SKo1W+dneWcf4uABiBVqR4/vnL07xu9st58rQ+sluaT4UZSzeJE//Oe1DL7Vdzk/w84X6DmAMeOF4jPb0VsPAa79Aa3t7RFNg7U0H/GtDuzyS6CFa/yjWUcmCkdw/RwFWv3K7BUmNOVY+SPluHR847PuxQNp/7LA1rYVITn/QNjmAmVpAf4mmLqlXKA1axTLjcuHOmhMfR954dKboUvnVUo4ngzs5uU/vanb/lt8IIahC8KIOlo0GWGmM3VC/E8HewsCQM7ot+QXFjAylob2oIAAdgdiPUIu548sNDRggZu/9YatZ2QCESKPf60DkxLli2tUVZN/IIVEqqlRaj2Ou/1UVFPZ03o2Mwl/z9arVsGT2V86BF3YnRuVRPQXIVfOtlYYVofymN10pzm6cZnFwf+upJadn3IoBQ5xANEdgYOzNgydmRqLv9Th+JU3Uz3JZ9ABgn/EJWC2cgGQw1ptMkPwk5HBmDm4uUtxRl7eCZFvW/Y9YUk+HIscstzw+Rsc2FCBvkKNrSvW/6vFgzokOG+56Jd1JaciJcM6lpt2gf7VIB/niJap+f+yU5X/C9Tj1PjQjUsiPwuQnOyrO4NlCgIeKzRJ4Z6SMD/2SjrFmClb0lvpd5wvWp6eOQJlKCFp2RzghWH4H2sGtkJK5/TjhjY+V1XlaP/qQ80ytE850D99dtZJb0kCXh52qZeLIRkXC9TG0SINa5JE4woyv6OyejA1OxqHFor9ff2uOfdGT+sfteGNTNlBYNjtNasKGgbJ6bVzGwhbMCRKCEAdF7X1hmR7upFVjKcLI6x4R6xPld3Yc980GvtLHt1ETUXI8GlBp0QQm+a6HvulaFcE3KXyFCJe/xBLGFJ/24ITExlFX/D5TKnD8PmPPM9s+8/L1gT64aWB8o5nsYQmiLzFTkgwAueKoRLg5Xk4ZNXc0Do9+FL/GX3kJCPMRwfh7W3WhYoEoXUZp+vqIwFjOEJ5IDoFCtczZDe5iOb0o/ySLuxzlP5HSdPjQLI/q7qR8C9PmlKsLEiYpJ4QkSX5rR8CO17G6Wd7QB9PN7gsw9kpntzTOznqA3MFbBXNA4117Oj3gVm3I2+wHvF080l+ZAjU1N3rsdr8E7uODHmH9kHos4R31q86xHAwn4U7raOHtWTL3r6fKaV/iB2V4yJx/ZO+AYhBfriD9AM86tAt0IoxPBv4JL7R/WkTO7+LQKjS2uW9ChQ5iUA97doq6FsC5CkkkyygSeGMrQjytWhFIi6k4Sq4uhdzpZO5ik1jganexLbJi1+LYRu7iCShqVYUZ6Lv3FTdiK5POEjy3WwhkaHBiJVYsVvgSN3fOo4ZuyShUrmDP4M1pJP185qcWNVTpljeywx75v1g2DJEbkj3XPBpTuRsM1fDxhlgHsXbil1aJKEIxzbLoSgpC3DeazQqYyTZD6bGfB3JEGssqAxLHHx0WOMjDRmIRzoX2gQsm/I2nklvYv3fGUGx+FSgtQ1SmfxAdXk4KQczVQXAAkJJhnmOZwqG9N7lId9AmSTrozfi395ritiT2O7DQ4bS71/uI3Lj62w58yEV/yW/+6ePCOAgp/Ea3E23o6ogAuNPgEcvyTrKLI7O77Sb+Pw9yLR5RX988u+Q3NrSiHaWKkG3ryZV9BRBPTsrM/wd7aR5KoHIV6VwlUICZPOuTcxAcLc0C3R7wNe/N5SrnbRGzBDuDMHOqO4slQKHrCgWTDEDMvpVXcpUlfs7lG2jJrleu6GNiKl+In+msnxOX7t4Og/IQZepR+G9WFiTkqmPcBYmz0YZKOD1koSHX5ZJ92di6E62H4HNwYlhe88PqB3yROH0INjRHn7io5J+pXHkCc8iCunOnZM/4bDMNZphZc9Tk5Cc0bhncAsgDDDqULM1Dh1wcj6O1j35fzw2c/8r6Qn8PPvgsL9A0/hBbauOAAnEdKks/cFCc3bcJ2u1TmNFbc6OLCJc6Fb7A/gdz+V5eaaZfhB+2/RqA/MM3VjFTZ/J1k+jvDWprE5GDfZ1wek1bxbQjXJsqHRzYgEuM6CgP9XMevqpYzfZckko0/decMCH2cfAc/ZS7XYng0zPY7YYrjo0HCHhUCr3XGDgVp07mleJ58/mltHYbzrKgLiXJa42T/UhMd/1LJ8han8j5aKxcWIzx85LK05Uv8yol7N98D0NnYyUyB7dr/WlAI9J84vTtNehRUIU7SC19TC3b+JS8/r96RgRUf5/9dA30zkisjF/+ua67kcvHt748ApwBfJsizkl+cef7zseQ76CZTkSNc0bpVB0LMuOsnH9aQ+BW2LDw6LeddH1arUjOMocHhvZuiQF8R8TiFa7qSi/PxCa6kZvQyQfZywq9aIuP790secMYbQMVe5ODRZ0ZV8gMKTMbvMeeD/PHxAAE1/l5v3WBIRp1KL7VRV+cddj8Wcxo5IGFjdssgVNwbb7b7iAXtfrCc0WpN6coH1pNk2ZKvkxbVY846QwgJXyRJRlROJmUmP6cEqH413r+8SqqNk/ppeai7bky0e+P87MajgTUkTCeD+FN3ViLkpkSlQhON8XDlxmMdrHD6FJh2UrUqmknu+MXsLd4nPzBgvrbZPigHrM7uE61KjJ7NEcTDFQjnckjez3YpTFJJC98VMNX/bEDpCC/n9qi0XjpCBfQP/HiIBSsLV5qDgtiCwRXK1N08ZCXVXsJWzjQZYack+huFhNNJ8BVjHJ19vokA8yTZSymq1mKMVu/fbY7YEoeVNezgzriaP/VniqM5SWhZvl4DcJvV584sxAH70JU2elBt+gRe5Ofq6Cys4gX6QTLaWnHjMA1/5TIUj+h9KRu7eE0x88K16IghYbcHMcqtbCYg8K/Jo/Byp3Ih6N1hmWGmjGu7UG9hmaHDOXTF2xCfZmRALVBWJYLpmpdWIQ7VqphflDzutlVD7GVwbpjuWZXAaUmm8SNKXlw9Urvpa/CVfq5tDriitcBNfpS0z2sDszUMVfg4FxnCYaepLDmuhG5gTZz4AdQpHu6xCFXGxBk9ZgwZSN1FuzlR4nSiUKNu5R155MroViOKlTYksbzpf00RRyuWUlOPaZoJRSe8+HKG3cwp8bpevJQeXbdk/zyBURR0FlX+dbj7SE9IesqMS1upSAiLI5ckNGhOwR7xjII4t6nfbGE/Y82Chnh/nvqGBTLJSPfnGzbE7TDmsXkKDbBdWugQajwm7QCvQnOLgk3SM0rVTCUa0olfmuHSuP7C0R5l3OR06Hk+Yr/UYBwuhUxhMi0AVr9pr8aYjQDKvCMjR2vB350eGC3o5ojCkAITaOD1chWXzHdi9N/XQEQG7Op7tMKVnRedrGDb+6M2sL36QkDhvue+SlSOyQxMX93UplF4qB9cPitPxoH3eVsTmOmXktViZLtn6R+kd/s8ql75kMZWPQ/g1tSWMdDdFVe24NvvtcUJd1wpjrRgZ6I+o7wVhrAwSdGvN7e+ww9ftpDA+eIGXM2zneCcIH/hno/IGWzrgxVfSXQZgtGmfE1UlwG7JPB92oq9M/ppV2K4CfJxvN5VafRC7dd7tGHP/fJ9EGtZO3cj/4vlAW5Fc5Y/nS2D0AQDTeIsM1twjTWvmhHgTNXtZnJoXgmoYvH4FzugT5t1HjCQb5QZvwq17AClCI0Jh+jpPj1g6ehg0YNo2/0OnfJgemsx/sCNboes2egQhtMeuUVGqvWND1YYYN5S4ZiXAJ1Krczjs3PY7lL3W53NlNWCV6OpWPOH8gNDJV46a43Ra/VxY3uK4yag7/bUdk/p9CjiiY2+fGma3PTN3WheVWC+BpUz48xY6BmxNVxH0znukHPrgH1tIodY6SNjYOOmdmT7kxNjR5iS++jpYujt0jNF+pGew8IS2+X6udr0nh0bCcOV/G//wJ4Zfu1rw+ne4lb454kZivop5lPnuAqc4c9iZ+M9PRRICqYTi13FrtgDdu5IDepE5V9NaMYS6+ZxNf9ke4VYSdaFNoNKNayjijfvMGMl47ti+1jFyNmfWlcH1RgFOWn7Fdx9Jre4ezpWoRYQZbU+KaC1ZmY+e1gttj975A0F1305BKcHlCF9fyUT3WGxfPRye0hTtKcCvo3n047RLdF8UBs5FghJWuzU5vq2D7yIpNA1y4nyA3EAPkyG2CH02Qam02kI3DYwwrvo2iDgpLPkoQuqQhW6oGEbpxODh53rJ82UwqRcF+6H9a0K7kTVt7OW+HkuLoquqgIb+yyKPi4EM8k1gDNRhivdCXxb7usL6zzFXZH8c9bZc2oJG/o+BQQ3RsAVNcdQj4F+VlTUzhCyP7b1WaETmI8QvMqgu/Bq0OCkyYoyoYoDG1gJBNJaTKOV5C5fZK07lLCAflAS2UiRQC+jFYNEKhmG/kRbZTYLa6mqxD3ENydTxmvOMwqh01/U8m+l3j4Ho3MoCh5x2uQZy0CURMSs2RRU+cZV8jHOeA6AoIcLPpwWx1imUiZqqKy9dfujwqNd7PS/Tq8bzRUQLEgBSmK6co+JxGRwYnkykYmMvOg88R3zTfj7noX3ZQImr3084/nwRpb5/jLYTSsMEEN/wy3EgvU5P8etibhQcaf8SRFuIWVlWVeSJoRNDsKA+RTw0eKvIZQmELeAhfRXtPmhfoRsFs3JU61ZFXzBAdGGf3thsorMq6JLHY2JMbJgK3HmmhW8wapHpviDl1pTXA4FchuWIPiBbWT7d5QkT6/qxAl7cejsZJtQjzVQMkw6Oo+2SVYmUkxiEqIPvBdU07R3/sanvWF8H03xm21OQQI0a3tld5MDRBeWtU9MCJORcOrjlFhPCptiVFZZ+/iClWzWDxldNlsoK1tQSYJ/GQfev3/nqHZ102pj56XYVeFqWiG1wQyLWMdFlXErUMYbIgsifXpSwd5Kj/VGVc9/mTK+SmlINUZYw1oCKEbAWai3rdgyCRlyL8bPqBlIH8R3/JM6Uay9v4Cx7pqwC65jebE52JfzhzjnDmLAkNQiFFfx1JX/xH7pGpr7sd7Py/nvL3E6rk3mKilb1V/qFnFCk2bia0lfXMmPZ9aABO/ZaY0z/02W1CnEBTm9Xp1Uoq3oJrTK5vaPa/0s3prlqsn9H+/aTN6nhWKbxrOK/iwdacCKK7G2wLVOn/hhRPgu4BmqsCwHHON8k1QEqR+x0E5470kHOP2m4auxlVOP9Y0zTFMeBeVjYTqQSIG+l2Hp/1WZGYC+RHflMsYFALbqciYfXI0znF2va3JWk8qnCiNpCuONkixwYf8DMN6Sgwji+a6/SYzy86YT4ZFpLV80J6CkBMFU7ZuMBwFzGuPqajJv62zh5WYfqiFMB/n1jhhx4qFwSi1g86h5mASRuf2c1K/6wU4ivGzEpQG03JE8PyzHow+FmGXpHOwI4U9Kfa7JzL2PvwlyGkvcVYD3zrhA7XYtgXwtl0hGqyf85JWu6vz6Y9CFlPOgESyjFNzTN7O3MX4ZapuZPD7QNfltZjUw12ROuNbdUmldyZCBIa5VW7e60Jqn5YBF8MyZG+zrsahNPQaMeohGeynT9/eIZMyGt+yrtsCl7IO3yx9eXXEwpuh2Y3mZ+7dpnCQ5nndFm7fCwObmayAPuoxQ3QvcOVu8WPmlR0qR1sabe8sL9KHXJltW/0jtR4tVUABXTj+7Wm7vq3KuePcmVcnKENnm2EST3Bxm//JGyOfYTJ/7ZaK6CYun6Fpdb9dakuy1kZ4Yqv6oPTYQvYQFs65wqJ7WSbyAYlRSZd0jEmvNuRvpM3Yjj5IK72kI3Gq9yluvmQZfUSHv4tfnfu7JLrFJaUorFR/m+0SD5V+n1kTjRomnFx1ApMcVP9x6BavF2azovNO5aJB/2q9mkF+Rv9bqMfyHKSiK0FiHz59S2XQx8KgrH1Bi8ykR4dCs1yZxSHCJ99en/Wfd5ofLdYDKovQyyBZkfLaO5FMOYqIhvtLRG2cVh8FjfAK60xVvG82L8QW2pK4J7xPsMibUMlWkvdvKcfDvuB05g2w3s8NtumndZ0+Nt1Vh3I+JgEOn4qifLTq84jewjiAgND7fHmL8qtTzXd9JI3yv8fvnHD8Mm8zdckxQfsyb7rsqoKTfPW9KR4jP2KJ42qj3hHzZ2OP7svvo0tuzo88vFgnEMrI/SXzFpYBMyuLhHTL/wqsGXdgzAjqVYrainvmj+H1ftungBdz1JrPi4M/5ASpGOUnIA2tRfmOW+tBgQyUyYcJTuImcSyyvO2v2MjdaicF0aEP/HPop1HCXElec6Z8wQq04Wqzs5mjkI7r59Z0330XjK//aoxW0lCtzI32Fa5m9uO5Y5L1/UzdKokDNMMP7xBp/Mp8tjSjxgPNjvhTyTv9MWqfAII8yK4yBo4HlJUbv1lagaHaM1gaAJlaXlfLFWunRMV1QQ+gB0PGJVghAsiYw8d0Eg3sFDrIbzMmENzwC8rmYrHolaBuDaD0cZKggKs1tJ0Bmg1PHYo9VVoCTGBdzoXr2TdrRkm+yDni6VhkxMsOpuRPmcor8ug9seAk6qksVymveaDfVtNfrWhogXDPtuWj1S8B24IwYG5/zcKmsQLT0SUNyGs+w/yRwEi3ta1I9B3CT0FDc6riIdQ1+uQzvh6pshY2Wzz2S46p9b6WafVmRA7dw4ghVNr9+Os9cuyzDWqPlkpsF5hSFAhAw5nUriyFwC6ZzOFfqGY6ExHUmL+226Xd5gS3/rGTpMqwUgMStmXbUV061vxOXfyai0UZsF/aaddGWC1T7PIA9o1kOUeALsUJ8YQTt/1RkrYm+wXymxpjbNwQO+JmlMPNJcAAAa5ppm1Yql3uDexz5y+3tO/H80fe4gzIQgWPDLkcajF1oW1qesk+WD4Hra3yXt9e7BtZlW+2jkZzmtHCKvvDhXj2Knov98avA1ADmQIy3rknCio/0gu9eTLW3VtSI5CzVRAg5v8R5UzfeopD3+w6SCbrnsjkkxu/TP6h9GwfXArreBBuAZR84n2KNGgFeFReRvre17ZYrmknDp1IGMonLPXtOfpXI9omCaaQas8JMIisJ53M4KCUMc4EMCE8hsEVsNf0UAdV0aKqwr4PmCH3UW+YDTjDZ4iJK+X276BBtFjqnMy9ud3/s2bIlvEKB5sONZioE1BkVBz77Wd/BhNnvR8zaAomII1iiaF6lGzs4tZ3QPtcby10GLgzEf7YF3rcf+jVl5Fwa3kaavp3AP7nNuSMMIslVItqUIDQ5Yb5ezgZJ+AzZ/rK4DVzcmTfaML52VDgqwMn3gJoqo5RyjtK/miaxSSGWexey6SSzVk3CQTJIPWPkULsLYC0ipC659HIjC13mj/u7jRw3gkeHvQsOaIQVPDFn/V1AguGART0VU4UBkYWZclfZEFjAfISppgcy3yt9CsYLujdwyWSlkXxbmp4ZLulYBrMcK8GXQERQ8J4fWtOi+UZBGHhWbjfwosPaiBokWgGzHJfJEcEAWKXDstLThgUYgarLGUjZ/glZqZ1P/iRv4LYT2/k7aJOGK4aa1ar6Ns8+J6OEWXEuPWMX6WLw0gfUwzPJGc58zkK9+9V9r4umZgGAOEPOLmAATtzsc45cz418kt/766ih3ba8YyP0TgoVvBkYyPaaLTS+4WPm8SPvuN47XhD0SWR5e3xNNodahsmxqf1w7Bo3PfvQ1VM4ATMX1MuplAneBOxKjroJv/LNzF6Muu+bIJIuHezIcgAHk5bCtnJDzW+ZdlUBmTUs5F8hKyemF22PBGj8EPvJH36uG6B4WXJkq6yJVBQ2fUgL/z9LJ/QXmC8Cr1fPzagHikKQ9nCjr+t8uHXI7/ampaV9AaSmIQPSAlRypfkV93nTZ10c9mtLahJjTLrCFdsGVPjt050MDE5U/uWGCy2AVH5b/3bzp3hVB3mrdDHyoqVvk9f8JIPC1ReGdKrLt8qvoiffVSrUBZCT/XkzuDc+YWOW7U9e8jwUAHC8tUEVehzb47FDdbyMhn3mdJy4EElKiMYecAI2ZhqLmBO8xGwOxB3RNrnCsd3MSfKXByTyqGpsev04/39nVtMWG6LuM3MDlpgn7/ohHsxPZy/jCL0Ffh+SKMZB5M5CmmjY9jSrppe40G6D9BQqbYk9rfy+nhPPNtOtoITnM8uzK2Nb6aPN2Ka7dJM3Q8CSbQJXqWQe1CxSxd6rvioRqmcEuMas+fwBpX87DAzj++cLsNA2pranYNjNResnodJ5J5HUPgfvyG0D8zaf4HV840P6r244OZurjG0YuGQcp11eoAmRHcGQNbMbob0iXf5evoEFn2JQ2rG/pRYzwECTiyph8XgtpbXP5DNdQnfFiJr/oApdCDtomeXrNqiTNJyv48W6Ld35fw/vjMRjcqxF4A92nVMPqCvPvvutcjGerxnHur+/f9B+ENDnRLpxjaD7CMNWOunW9+8DChJFn3pXNSkhCiMLPmtzAt/ZMzV0Jtg2Zzfpou1k7g41R5ga1oP3WN58R7ITqMo49GJmmcij5r2JI3EDR9BP+NuxtzPdVd1UdWaAflECQJxp1wtI1ZaRX5TTo6hX/PZYqayyb8W0so2AhjiGWtvUASxa1AMD5R64W6+JCquryQNB4q/rQFgP10H9bFZxq5gSiLcYeqhOYLZtNsQY2XqoIy16yNuEz/uoUt8W6QnIs9YtUQrRF1Hew;" vertex="1" parent="1">
                    <mxGeometry x="225.75" y="260" width="168.5" height="151" as="geometry"/>
                </mxCell>
                <mxCell id="24" value="LISTA DE INVENTARIO DE GANADO" style="whiteSpace=wrap;html=1;rounded=1;arcSize=50;align=center;verticalAlign=middle;strokeWidth=1;autosize=1;spacing=4;treeFolding=1;treeMoving=1;newEdgeStyle={&quot;edgeStyle&quot;:&quot;entityRelationEdgeStyle&quot;,&quot;startArrow&quot;:&quot;none&quot;,&quot;endArrow&quot;:&quot;none&quot;,&quot;segment&quot;:10,&quot;curved&quot;:1,&quot;sourcePerimeterSpacing&quot;:0,&quot;targetPerimeterSpacing&quot;:0};" vertex="1" parent="1">
                    <mxGeometry x="513" y="505" width="250" height="30" as="geometry"/>
                </mxCell>
                <mxCell id="25" value="" style="shape=image;verticalLabelPosition=bottom;labelBackgroundColor=default;verticalAlign=top;aspect=fixed;imageAspect=0;image=data:image/svg+xml,PHN2ZyB4bWxucz0iaHR0cDovL3d3dy53My5vcmcvMjAwMC9zdmciIHByZXNlcnZlQXNwZWN0UmF0aW89InhNaWRZTWlkIG1lZXQiIHZpZXdCb3g9IjAuNDE0MDYyNSAwLjE3MDE5OTM0OTUyMjU5MDY0IDEyNzkuMzI5ODMzOTg0Mzc1IDEwMzkuODI5ODMzOTg0Mzc1IiBoZWlnaHQ9IjEwMzkuODI5ODMzOTg0Mzc1IiB3aWR0aD0iMTI3OS4zMjk4MzM5ODQzNzUiIHZlcnNpb249IjEuMCI+CjxnIHN0cm9rZT0ibm9uZSIgZmlsbD0iIzAwMDAwMCIgdHJhbnNmb3JtPSJ0cmFuc2xhdGUoMC4wMDAwMDAsMTA0MC4wMDAwMDApIHNjYWxlKDAuMTAwMDAwLC0wLjEwMDAwMCkiPgo8cGF0aCBkPSJNMTA0MjAgMTAzNzAgYy0xMjUgLTQxIC0xNzUgLTczIC0yNzYgLTE3NCAtMTQ1IC0xNDUgLTI4MSAtMzM5IC0zODcmIzEwOy01NTEgLTc3IC0xNTQgLTkwIC0yMDMgLTkwIC0zNDAgMSAtMjI1IDc3IC00MDYgMTgxIC00MzUgNTQgLTE1IDE4MiAtMTIgMjY5JiMxMDs2IDE2NCAzNCAyNzkgOTAgNDExIDIwMCA4MCA2NyAxMDcgNzcgMTE3IDQ1IDggLTI2IC02IC01NyAtNjAgLTEyOSAtODEgLTEwOCYjMTA7LTI3MyAtMjU3IC0zNjQgLTI4MiAtNTMgLTE1IC0yNDQgLTEyIC0zNDEgNSAtMTAxIDE4IC0yMTUgNzAgLTI1OCAxMTkgLTE2IDE5JiMxMDstMzggNTUgLTQ4IDgxIC0xNSA0MSAtMTYgNTYgLTYgMTEzIDYgMzcgOSA2OCA4IDcwIC03IDYgLTE2MiAtMTE3IC0yNTEgLTE5OSYjMTA7LTQ5IC00NSAtMjExIC0xOTcgLTM2MCAtMzM4IC0zNTcgLTMzOCAtMzk2IC0zNzUgLTQ5MCAtNDU3IC0zMTkgLTI4MSAtNjE0JiMxMDstNDkwIC04NTAgLTYwNCAtMTYxIC03OCAtMjA1IC05MSAtNTI1IC0xNTUgLTM0NiAtNjkgLTUxMCAtODEgLTEwNTAgLTcxIC02MjImIzEwOzEwIC0xMDE4IDQyIC0xMzQwIDEwNiAtODAgMTYgLTIzMCA0NiAtMzM1IDY1IC0yNDYgNDcgLTM2OSA3NCAtNTk1IDEzNSAtMjc2JiMxMDs3NCAtMzk2IDgzIC01ODAgNDUgLTE2MSAtMzQgLTI5NiAtOTUgLTY2MCAtMjk5IC0xMjQgLTcwIC0yNTAgLTEzNiAtMjc5IC0xNDcmIzEwOy0zMCAtMTEgLTc2IC0zNiAtMTAyIC01NSAtNTggLTQyIC0xMTkgLTY5IC0yOTAgLTEyOSAtMTQ5IC01MyAtMjI1IC04OCAtMzE0JiMxMDstMTQ4IC0xMjcgLTg2IC0yNDMgLTIyMCAtMjcxIC0zMTUgLTE5IC02MSAtMzIgLTM2NCAtNDQgLTk5MiAtMTMgLTYzNyAtMjcmIzEwOy04MjAgLTg1IC0xMTA1IC0zMiAtMTU0IC03MCAtMjcwIC0xNTIgLTQ1OCAtMTEwIC0yNTUgLTExOSAtMjcxIC0zNTEgLTU4MCYjMTA7LTIyNiAtMzAyIC0yNTggLTM2OCAtMjkzIC02MDUgLTM0IC0yMzUgLTU5IC0zMjAgLTE0NCAtNDg0IC00MSAtODEgLTkwIC0xODImIzEwOy0xMDkgLTIyNSAtMTggLTQzIC01MSAtMTEzIC03MSAtMTU2IC0zNSAtNzEgLTM3IC03OSAtMjIgLTk0IDI0IC0yNCA5MiAtMTgmIzEwOzE5MyAxOCAxNjMgNTcgMjI2IDk4IDI1NiAxNjYgMTYgMzYgMjEgODEgMjggMjUyIDExIDI2MCAyNiAzNTAgMTAwIDYyOSAxMTAmIzEwOzQwNiAxMjAgNDI0IDMxMCA1MzMgMjQ1IDE0MCAzODAgNDAxIDQ3NCA5MjAgMzQgMTg0IDUwIDMwMyA5MSA2NzQgNjggNjA0IDEzMSYjMTA7OTI1IDIwMCAxMDExIDQ1IDU1IDY4IDIxIDE4NCAtMjcxIDQzIC0xMTAgMTAwIC0yNjMgMTI2IC0zNDAgMTgyIC01NDkgMjg0JiMxMDstMTUwNyAxODUgLTE3MzIgLTIyIC01MSAtOTkgLTExMCAtMzM1IC0yNTggLTIzMSAtMTQ1IC0zMTcgLTIwOCAtMzg5IC0yODYmIzEwOy03MiAtNzcgLTEwNyAtMTQ1IC0xMzAgLTI0NyAtMTcgLTc4IC03MiAtNDA3IC0xMzEgLTc5MiAtNTkgLTM4MSAtOTMgLTUyMiYjMTA7LTE1NyAtNjQzIC0xNyAtMzEgLTc2IC0xMDYgLTEzMSAtMTY1IC0xNTcgLTE3MCAtMTk2IC0yMjggLTI0MiAtMzY0IC0xMyAtMzkmIzEwOy0zNSAtODMgLTQ4IC05NyAtMzkgLTQyIC01MCAtNzAgLTQzIC0xMTMgOSAtNTMgMjggLTg4IDgxIC0xNDggNzYgLTg1IDc5IC05NiYjMTA7ODUgLTI3NiAzIC0xMTUgOSAtMTY2IDE5IC0xNzcgMjggLTM0IDg4IC00MCAzODEgLTM5IDI3MiAxIDQyNCAxMiA0NDQgMzIgMTYmIzEwOzE2IC01NSAxMTAgLTI3MSAzNTYgLTE1NCAxNzQgLTE4MyAyMjYgLTE4MyAzMjIgMCAyNTAgMzA2IDgyMCA2OTkgMTMwMiAxMDYmIzEwOzEzMSAzNDYgMzc3IDQyNiA0MzcgODEgNjIgMjA3IDEyMCA0MTAgMTg4IDQ5OSAxNjggOTY0IDQ3OSAxNDM1IDk2MSAxODMgMTg4JiMxMDszMzAgMzY4IDQ4MiA1OTIgMTU5IDIzNSAyMTMgMzAyIDI0NCAzMDIgNTEgMCAxNTQgLTExMSAxNTQgLTE2NiAwIC00MiAtNzAmIzEwOy0xMjYgLTMyOSAtMzkyIC0zMDkgLTMxOCAtNDI1IC00NDggLTU3NCAtNjQyIC02MSAtODAgLTE1NCAtMTk2IC0yMDYgLTI1OCYjMTA7LTI5OCAtMzUyIC0zNTIgLTQ2MyAtMjc3IC01NzEgNjEgLTg3IDE5NCAtMTcxIDYxMiAtMzgyIDM5MiAtMTk5IDQ5NyAtMjY0JiMxMDs2MTEgLTM4MSAxMjMgLTEyNiAxNjEgLTIzMCAxNzMgLTQ3NiA5IC0xODAgMjAgLTIyNCA1NSAtMjMwIDU0IC0xMCA5MiAtNzcmIzEwOzEyMSAtMjEwIDE1IC03MiAyMiAtODcgNDkgLTEwOCA4MCAtNjAgMzk4IC0xNzggNTE3IC0xOTAgNTkgLTYgNjYgLTQgOTUgMjAmIzEwOzY4IDU3IDk2IDE3MCA2OSAyNzcgLTQ2IDE3NyAtMjA1IDM1OSAtNjIxIDcwOCAtNTIyIDQzOCAtNzM1IDY2NSAtODA5IDg2MiYjMTA7LTEyMyAzMjkgMjQgNzEwIDI5MSA3NTQgOTQgMTUgMjE4IC00MCAzODggLTE3NCAxMTEgLTg4IDE3NSAtMTE0IDI2MiAtMTA5IDU1JiMxMDszIDcwIDkgMTIwIDQ2IDE2MCAxMTggNDUwIDIyMyA5OTggMzYwIDYwOSAxNTMgNzk5IDE4NSA4NzkgMTQ3IDUyIC0yNSAxNDMmIzEwOy0xMTAgMTgxIC0xNzAgMTggLTI3IDQ1IC04NCA2MCAtMTI1IDM1IC05MSA4NiAtMTQ2IDIyNCAtMjQwIDMzNyAtMjMwIDg0MCYjMTA7LTgwMiAxMDAyIC0xMTM3IDk1IC0xOTcgMTE5IC0zMDQgMTM5IC02MTMgMTUgLTIyNCAyOCAtMzU1IDQxIC00MDQgNyAtMjUgMjgmIzEwOy01NiA1OCAtODUgNTUgLTUzIDg1IC0xMjIgOTYgLTIyMSAxMyAtMTIxIDUzIC0xNzcgMTg5IC0yNjcgODMgLTU1IDIyOCAtMTI0JiMxMDszMDggLTE0NyA4MyAtMjQgMjQ4IC01NiAyODggLTU2IDU3IDAgMjY4IDQ3IDMwMyA2OCA0OCAyOCA0MyA3NiAtMjEgMjA1IC0xMzMmIzEwOzI2NyAtMjg2IDQ0MyAtNDk4IDU3MiAtMjI4IDEzOSAtMzA3IDIwNCAtMzkyIDMyOSAtMTMyIDE5MSAtMjIzIDQzOCAtMzAzIDgyNiYjMTA7LTgxIDM5MSAtMjAwIDgyOSAtMjkzIDEwNzkgLTcxIDE4OCAtOTEgMjk3IC05MSA0ODYgMCAxNTEgMSAxNjMgMjUgMjEwIDIwIDQwJiMxMDszMCA1MCA1MCA1MCA0NSAwIDU1IC00MSA1MCAtMjAwIC03IC0yNDAgLTUgLTI2NiAxOSAtMzEzIDMxIC02MSA5MCAtMTIyIDEzNiYjMTA7LTE0MyA4NCAtMzYgMzM5IC0zMiA0MjIgOCA0NiAyMSAxNTIgMTIwIDIwOCAxOTMgNTUgNzIgODMgMTI4IDk1IDE5MiA2IDI4IDIxJiMxMDs2NiAzNSA4NCAzNSA0NiA0NSAxMTEgNDUgMjk1IGwwIDE1OSAtMTAwIDAgYy0xMDcgMCAtMTk3IDIyIC0yMzIgNTggLTM3IDM3JiMxMDstNjMgMTk1IC0xMDMgNjI3IC00NCA0ODAgLTY3IDYwMCAtMTcwIDkwNSAtNjcgMTk3IC05NCAyNTMgLTE0MyAyOTMgLTc4IDY0JiMxMDstMjI1IDIxNiAtMzEzIDMyNCAtMTM2IDE2NyAtMTM0IDE3MyAzMCA4NyAyNTUgLTEzNCA0NzUgLTMxOSA2MDEgLTUwNCAxMTAmIzEwOy0xNjIgMTIyIC0yMzAgMTQwIC03ODUgMTYgLTQ2NSAzNiAtNjM0IDg4IC03MTIgMjYgLTQxIDcwIC01NyAxNTIgLTU3IDEwNSAtMSYjMTA7MTQ2IDIyIDI2MiAxNDIgMjM5IDI1MCAzMzEgNDY4IDQ1OCAxMDc3IDU0IDI2NCA4OSAzOTUgMTQ2IDU0NiAxNDcgMzkxIDM3NCYjMTA7NzQ5IDY0NiAxMDIwIDExNSAxMTUgMjI4IDIwMiAzNzUgMjg4IDEwMyA2MSAxNjMgMTA2IDE2MyAxMjMgMCAzOSAtMTMzIDI5JiMxMDstMzQ1IC0yNyAtMTgyIC00OCAtMzI0IC02NyAtNDk1IC02NiAtMjA5IDAgLTI4NSAyNyAtNDA4IDE0NSAtNjAgNTcgLTc1IDg3JiMxMDstNTcgMTEzIDMzIDQ3IDkxIDM1IDE1MyAtMzEgNzQgLTc5IDE4MiAtMTE2IDMzNyAtMTE1IDEwNSAwIDE3OCAxMyAzNjggNjMmIzEwOzE4MyA0OCAyNDMgNTIgNDIyIDMxIDIwOCAtMjQgMzMxIC0xNyA1MDUgMjkgMTg3IDQ5IDI3MiA3OSAzMjQgMTE1IDc0IDUxIDE3NSYjMTA7MjIwIDIxNyAzNjQgMjEgNzUgMjEgNzggNSAxMzEgLTI0IDc2IC03MyAxMzYgLTE1MyAxODkgLTkxIDYwIC05MyA2MSAtMjkzJiMxMDsxNDEgLTI0NyAxMDAgLTMwNyAxMzcgLTQ2OCAyODggLTE3NyAxNjcgLTI4MiAyNDEgLTQ3NyAzMzggLTI3NSAxMzYgLTQ5MSAxOTQmIzEwOy03MDAgMTg4IC0xMTkgLTMgLTEyMSAtNCAtMjA3IC00NyAtNzcgLTM4IC05MyAtNDMgLTEzMCAtMzcgLTkxIDE1IC0xNzEgODUmIzEwOy0yMDcgMTgxIC0yNyA3MyAtMjYgMTE3IDQgMjE0IDQ3IDE0OCAxMzUgMjgzIDMwNCA0NjYgMTE4IDEyNyAxMzYgMTU5IDEwNiYjMTA7MTgyIC0yNiAxOCAtNDggMTYgLTE0NSAtMTd6IG05MjkgLTE1MDcgYzYxIC00OSAzNyAtMjEzIC0zMCAtMjEzIC0yNiAwIC0xMTImIzEwOzM1IC0xNTkgNjUgLTUzIDM0IC01MSA1NSA5IDk5IDg4IDY1IDE0MiA4MCAxODAgNDl6IG0xMDIxIC00MzYgYzAgLTcgLTExIC0yOCYjMTA7LTI1IC00NyAtMzQgLTQ2IC0zMiAtNjAgOCAtNjAgMTA3IDAgMTc4IC03MCAxMTkgLTExNyAtMjcgLTIyIC01MiAtMTUgLTYzIDE3JiMxMDstNiAxNyAtMTUgMzAgLTIwIDMwIC01IDAgLTEyIDAgLTE2IDAgLTUgMSAtMTAgLTE0IC0xMyAtMzEgLTYgLTM4IC0yOCAtNTQmIzEwOy02MiAtNDYgLTQwIDEwIC02OCAzOSAtNzcgNzggLTEzIDU1IDcgOTcgNjcgMTQ2IDUzIDQzIDgyIDU0IDgyIDMweiIvPgo8cGF0aCBkPSJNMTE0MTYgOTgzNiBjLTU1IC0xNTYgLTg1IC0yMDggLTE2OCAtMjkyIC00NSAtNDYgLTU5IC02NyAtNTYgLTg1IDUmIzEwOy0zNSA1MSAtNTMgMTMzIC01MyAxMjAgMSAxNzMgMzAgMTk0IDEwOSAxNCA1MCAxNCAyMjUgMSAyOTYgLTE1IDc4IC0zOSAxNTkmIzEwOy00OCAxNTkgLTUgMCAtMzAgLTYwIC01NiAtMTM0eiIvPgo8L2c+Cjwvc3ZnPg==;" vertex="1" parent="1">
                    <mxGeometry x="556" y="420" width="102.04" height="83" as="geometry"/>
                </mxCell>
                <mxCell id="26" value="" style="edgeStyle=entityRelationEdgeStyle;startArrow=none;endArrow=diamondThin;segment=10;curved=1;sourcePerimeterSpacing=0;targetPerimeterSpacing=0;exitX=1;exitY=0.5;exitDx=0;exitDy=0;endFill=1;entryX=0;entryY=0.25;entryDx=0;entryDy=0;" edge="1" parent="1" source="6" target="24">
                    <mxGeometry relative="1" as="geometry">
                        <mxPoint x="390" y="368" as="sourcePoint"/>
                        <mxPoint x="480" y="470.5" as="targetPoint"/>
                    </mxGeometry>
                </mxCell>
                <mxCell id="27" value="CANTIDAD DE UNIDADES POR TIPO" style="whiteSpace=wrap;html=1;rounded=1;arcSize=50;align=center;verticalAlign=middle;strokeWidth=1;autosize=1;spacing=4;treeFolding=1;treeMoving=1;newEdgeStyle={&quot;edgeStyle&quot;:&quot;entityRelationEdgeStyle&quot;,&quot;startArrow&quot;:&quot;none&quot;,&quot;endArrow&quot;:&quot;none&quot;,&quot;segment&quot;:10,&quot;curved&quot;:1,&quot;sourcePerimeterSpacing&quot;:0,&quot;targetPerimeterSpacing&quot;:0};" vertex="1" parent="1">
                    <mxGeometry x="520" y="655" width="250" height="30" as="geometry"/>
                </mxCell>
                <mxCell id="28" value="" style="verticalLabelPosition=bottom;shadow=0;dashed=0;align=center;html=1;verticalAlign=top;strokeWidth=1;shape=mxgraph.mockup.graphics.barChart;strokeColor=default;strokeColor2=none;strokeColor3=#666666;fillColor2=#008cff;fillColor3=#dddddd;fontFamily=Helvetica;fontSize=12;fontColor=default;fillColor=default;" vertex="1" parent="1">
                    <mxGeometry x="556" y="580" width="120" height="55" as="geometry"/>
                </mxCell>
                <mxCell id="29" value="" style="edgeStyle=entityRelationEdgeStyle;startArrow=none;endArrow=diamondThin;segment=10;curved=1;sourcePerimeterSpacing=0;targetPerimeterSpacing=0;exitX=1;exitY=0.5;exitDx=0;exitDy=0;endFill=1;entryX=0;entryY=0.25;entryDx=0;entryDy=0;" edge="1" parent="1" source="6" target="27">
                    <mxGeometry relative="1" as="geometry">
                        <mxPoint x="420" y="285" as="sourcePoint"/>
                        <mxPoint x="522.9999999999998" y="522.5" as="targetPoint"/>
                    </mxGeometry>
                </mxCell>
            </root>
        </mxGraphModel>
    </diagram>
</mxfile>